<?xml version="1.0" encoding="UTF-8" standalone="no"?>
<!-- Created with Inkscape (http://www.inkscape.org/) -->

<svg
   version="1.1"
   id="svg1"
   width="4000.04"
   height="2800"
   viewBox="0 0 4000.04 2800"
   sodipodi:docname="vecteezy_geometric-background-with-abstract-shapes_36101680.eps"
   xmlns:inkscape="http://www.inkscape.org/namespaces/inkscape"
   xmlns:sodipodi="http://sodipodi.sourceforge.net/DTD/sodipodi-0.dtd"
   xmlns="http://www.w3.org/2000/svg"
   xmlns:svg="http://www.w3.org/2000/svg">
  <defs
     id="defs1" />
  <sodipodi:namedview
     id="namedview1"
     pagecolor="#ffffff"
     bordercolor="#000000"
     borderopacity="0.25"
     inkscape:showpageshadow="2"
     inkscape:pageopacity="0.0"
     inkscape:pagecheckerboard="0"
     inkscape:deskcolor="#d1d1d1">
    <inkscape:page
       x="0"
       y="0"
       inkscape:label="1"
       id="page1"
       width="4000.04"
       height="2800"
       margin="0"
       bleed="0" />
  </sodipodi:namedview>
  <g
     id="g1"
     inkscape:groupmode="layer"
     inkscape:label="1">
    <g
       id="group-R5">
      <path
         id="path2"
         d="M 30000.3,20989.1 H 0 V 10.9023 H 30000.3 V 20989.1"
         style="fill:#ffffff;fill-opacity:1;fill-rule:nonzero;stroke:none"
         transform="matrix(0.13333333,0,0,-0.13333333,0,2800)" />
      <path
         id="path3"
         d="m 3000,18000 v 0 C 1343.15,18000 0,19343.1 0,21000 v 0 H 0.00390625 C 1656.86,21000 3000,19656.9 3000,18000 v 0"
         style="fill:#0f3b56;fill-opacity:1;fill-rule:nonzero;stroke:none"
         transform="matrix(0.13333333,0,0,-0.13333333,0,2800)" />
      <path
         id="path4"
         d="m 0,15000 v 0 c 0,1656.9 1343.15,3000 3000,3000 v 0 0 C 3000,16343.1 1656.86,15000 0.00390625,15000 H 0"
         style="fill:#009193;fill-opacity:1;fill-rule:nonzero;stroke:none"
         transform="matrix(0.13333333,0,0,-0.13333333,0,2800)" />
      <path
         id="path5"
         d="M 0,6000 V 9000 H 3000 Z"
         style="fill:#0f3b56;fill-opacity:1;fill-rule:nonzero;stroke:none"
         transform="matrix(0.13333333,0,0,-0.13333333,0,2800)" />
      <path
         id="path6"
         d="m 3000,18000 v 0 0 c 0,1656.9 1343.15,3000 3000,3000 v 0 0 c 0,-1656.9 -1343.14,-3000 -3000,-3000"
         style="fill:#009193;fill-opacity:1;fill-rule:nonzero;stroke:none"
         transform="matrix(0.13333333,0,0,-0.13333333,0,2800)" />
      <path
         id="path7"
         d="m 6000,15000 v 0 c -1656.85,0 -3000,1343.1 -3000,3000 v 0 0 c 1656.86,0 3000,-1343.1 3000,-3000 v 0"
         style="fill:#f8a350;fill-opacity:1;fill-rule:nonzero;stroke:none"
         transform="matrix(0.13333333,0,0,-0.13333333,0,2800)" />
      <path
         id="path8"
         d="M 9000,9000 H 6000 v 0 c 0,1656.9 1343.15,3000 3000,3000 v 0 -3000"
         style="fill:#0f3b56;fill-opacity:1;fill-rule:nonzero;stroke:none"
         transform="matrix(0.13333333,0,0,-0.13333333,0,2800)" />
      <path
         id="path9"
         d="m 11030.3,12969.7 c -135.7,-135.7 -323.2,-219.7 -530.3,-219.7 -414.2,0 -749.98,335.8 -749.98,750 0,207.1 84,394.6 219.7,530.3 135.68,135.7 323.18,219.7 530.28,219.7 207.1,0 394.6,-84 530.3,-219.7 135.7,-135.7 219.7,-323.2 219.7,-530.3 0,-207.1 -84,-394.6 -219.7,-530.3 z m 530.3,1590.9 c -271.4,271.5 -646.4,439.4 -1060.6,439.4 -414.2,0 -789.18,-167.9 -1060.57,-439.4 -271.51,-271.4 -439.41,-646.4 -439.41,-1060.6 0,-828.4 671.6,-1500 1499.98,-1500 414.2,0 789.2,167.9 1060.6,439.4 271.5,271.4 439.4,646.4 439.4,1060.6 0,414.2 -167.9,789.2 -439.4,1060.6"
         style="fill:#f8a350;fill-opacity:1;fill-rule:nonzero;stroke:none"
         transform="matrix(0.13333333,0,0,-0.13333333,0,2800)" />
      <path
         id="path10"
         d="m 6375.34,2434 v 0 c -103.56,0 -187.5,83.9 -187.5,187.5 v 0 c 0,103.5 83.94,187.5 187.5,187.5 v 0 c 103.55,0 187.5,-84 187.5,-187.5 v 0 c 0,-103.6 -83.95,-187.5 -187.5,-187.5"
         style="fill:#009193;fill-opacity:1;fill-rule:nonzero;stroke:none"
         transform="matrix(0.13333333,0,0,-0.13333333,0,2800)" />
      <path
         id="path11"
         d="m 6375.34,1686.3 v 0 c -103.56,0 -187.5,84 -187.5,187.5 v 0 c 0,103.6 83.94,187.5 187.5,187.5 v 0 c 103.55,0 187.5,-83.9 187.5,-187.5 v 0 c 0,-103.5 -83.95,-187.5 -187.5,-187.5"
         style="fill:#f8a350;fill-opacity:1;fill-rule:nonzero;stroke:none"
         transform="matrix(0.13333333,0,0,-0.13333333,0,2800)" />
      <path
         id="path12"
         d="m 6375.34,938.699 v 0 c -103.56,0 -187.5,83.901 -187.5,187.501 v 0 c 0,103.5 83.94,187.5 187.5,187.5 v 0 c 103.55,0 187.5,-84 187.5,-187.5 v 0 c 0,-103.6 -83.95,-187.501 -187.5,-187.501"
         style="fill:#0f3b56;fill-opacity:1;fill-rule:nonzero;stroke:none"
         transform="matrix(0.13333333,0,0,-0.13333333,0,2800)" />
      <path
         id="path13"
         d="m 6375.34,191 v 0 c -103.56,0 -187.5,84 -187.5,187.5 v 0 c 0,103.602 83.94,187.5 187.5,187.5 v 0 c 103.55,0 187.5,-83.898 187.5,-187.5 v 0 C 6562.84,275 6478.89,191 6375.34,191"
         style="fill:#d12d50;fill-opacity:1;fill-rule:nonzero;stroke:none"
         transform="matrix(0.13333333,0,0,-0.13333333,0,2800)" />
      <path
         id="path14"
         d="m 7125.11,2434 v 0 c -103.55,0 -187.5,83.9 -187.5,187.5 v 0 c 0,103.5 83.95,187.5 187.5,187.5 v 0 c 103.56,0 187.5,-84 187.5,-187.5 v 0 c 0,-103.6 -83.94,-187.5 -187.5,-187.5"
         style="fill:#009193;fill-opacity:1;fill-rule:nonzero;stroke:none"
         transform="matrix(0.13333333,0,0,-0.13333333,0,2800)" />
      <path
         id="path15"
         d="m 7125.11,1686.3 v 0 c -103.55,0 -187.5,84 -187.5,187.5 v 0 c 0,103.6 83.95,187.5 187.5,187.5 v 0 c 103.56,0 187.5,-83.9 187.5,-187.5 v 0 c 0,-103.5 -83.94,-187.5 -187.5,-187.5"
         style="fill:#0f3b56;fill-opacity:1;fill-rule:nonzero;stroke:none"
         transform="matrix(0.13333333,0,0,-0.13333333,0,2800)" />
      <path
         id="path16"
         d="m 7125.11,938.699 v 0 c -103.55,0 -187.5,83.901 -187.5,187.501 v 0 c 0,103.5 83.95,187.5 187.5,187.5 v 0 c 103.56,0 187.5,-84 187.5,-187.5 v 0 c 0,-103.6 -83.94,-187.501 -187.5,-187.501"
         style="fill:#f8a350;fill-opacity:1;fill-rule:nonzero;stroke:none"
         transform="matrix(0.13333333,0,0,-0.13333333,0,2800)" />
      <path
         id="path17"
         d="m 7125.11,191 v 0 c -103.55,0 -187.5,84 -187.5,187.5 v 0 c 0,103.602 83.95,187.5 187.5,187.5 v 0 c 103.56,0 187.5,-83.898 187.5,-187.5 v 0 C 7312.61,275 7228.67,191 7125.11,191"
         style="fill:#0f3b56;fill-opacity:1;fill-rule:nonzero;stroke:none"
         transform="matrix(0.13333333,0,0,-0.13333333,0,2800)" />
      <path
         id="path18"
         d="m 7874.89,2434 v 0 c -103.55,0 -187.5,83.9 -187.5,187.5 v 0 c 0,103.5 83.95,187.5 187.5,187.5 v 0 c 103.55,0 187.5,-84 187.5,-187.5 v 0 c 0,-103.6 -83.95,-187.5 -187.5,-187.5"
         style="fill:#d12d50;fill-opacity:1;fill-rule:nonzero;stroke:none"
         transform="matrix(0.13333333,0,0,-0.13333333,0,2800)" />
      <path
         id="path19"
         d="m 7874.89,1686.3 v 0 c -103.55,0 -187.5,84 -187.5,187.5 v 0 c 0,103.6 83.95,187.5 187.5,187.5 v 0 c 103.55,0 187.5,-83.9 187.5,-187.5 v 0 c 0,-103.5 -83.95,-187.5 -187.5,-187.5"
         style="fill:#009193;fill-opacity:1;fill-rule:nonzero;stroke:none"
         transform="matrix(0.13333333,0,0,-0.13333333,0,2800)" />
      <path
         id="path20"
         d="m 7874.89,938.699 v 0 c -103.55,0 -187.5,83.901 -187.5,187.501 v 0 c 0,103.5 83.95,187.5 187.5,187.5 v 0 c 103.55,0 187.5,-84 187.5,-187.5 v 0 c 0,-103.6 -83.95,-187.501 -187.5,-187.501"
         style="fill:#d12d50;fill-opacity:1;fill-rule:nonzero;stroke:none"
         transform="matrix(0.13333333,0,0,-0.13333333,0,2800)" />
      <path
         id="path21"
         d="m 7874.89,191 v 0 c -103.55,0 -187.5,84 -187.5,187.5 v 0 c 0,103.602 83.95,187.5 187.5,187.5 v 0 c 103.55,0 187.5,-83.898 187.5,-187.5 v 0 C 8062.39,275 7978.44,191 7874.89,191"
         style="fill:#009193;fill-opacity:1;fill-rule:nonzero;stroke:none"
         transform="matrix(0.13333333,0,0,-0.13333333,0,2800)" />
      <path
         id="path22"
         d="m 8624.67,2434 v 0 c -103.56,0 -187.5,83.9 -187.5,187.5 v 0 c 0,103.5 83.94,187.5 187.5,187.5 v 0 c 103.55,0 187.5,-84 187.5,-187.5 v 0 c 0,-103.6 -83.95,-187.5 -187.5,-187.5"
         style="fill:#009193;fill-opacity:1;fill-rule:nonzero;stroke:none"
         transform="matrix(0.13333333,0,0,-0.13333333,0,2800)" />
      <path
         id="path23"
         d="m 8624.67,1686.3 v 0 c -103.56,0 -187.5,84 -187.5,187.5 v 0 c 0,103.6 83.94,187.5 187.5,187.5 v 0 c 103.55,0 187.5,-83.9 187.5,-187.5 v 0 c 0,-103.5 -83.95,-187.5 -187.5,-187.5"
         style="fill:#d12d50;fill-opacity:1;fill-rule:nonzero;stroke:none"
         transform="matrix(0.13333333,0,0,-0.13333333,0,2800)" />
      <path
         id="path24"
         d="m 8624.67,938.699 v 0 c -103.56,0 -187.5,83.901 -187.5,187.501 v 0 c 0,103.5 83.94,187.5 187.5,187.5 v 0 c 103.55,0 187.5,-84 187.5,-187.5 v 0 c 0,-103.6 -83.95,-187.501 -187.5,-187.501"
         style="fill:#009193;fill-opacity:1;fill-rule:nonzero;stroke:none"
         transform="matrix(0.13333333,0,0,-0.13333333,0,2800)" />
      <path
         id="path25"
         d="m 8624.67,191 v 0 c -103.56,0 -187.5,84 -187.5,187.5 v 0 c 0,103.602 83.94,187.5 187.5,187.5 v 0 c 103.55,0 187.5,-83.898 187.5,-187.5 v 0 C 8812.17,275 8728.22,191 8624.67,191"
         style="fill:#0f3b56;fill-opacity:1;fill-rule:nonzero;stroke:none"
         transform="matrix(0.13333333,0,0,-0.13333333,0,2800)" />
      <path
         id="path26"
         d="M 9000,3000 H 6000 l 1500,3000 z"
         style="fill:#0f3b56;fill-opacity:1;fill-rule:nonzero;stroke:none"
         transform="matrix(0.13333333,0,0,-0.13333333,0,2800)" />
      <path
         id="path27"
         d="m 12000,18000 v 0 c -1656.9,0 -3000,1343.1 -3000,3000 v 0 0 c 1656.9,0 3000,-1343.1 3000,-3000 v 0"
         style="fill:#d12d50;fill-opacity:1;fill-rule:nonzero;stroke:none"
         transform="matrix(0.13333333,0,0,-0.13333333,0,2800)" />
      <path
         id="path28"
         d="m 9000,15000 v 0 c 0,1656.9 1343.1,3000 3000,3000 v 0 0 c 0,-1656.9 -1343.1,-3000 -3000,-3000 v 0"
         style="fill:#009193;fill-opacity:1;fill-rule:nonzero;stroke:none"
         transform="matrix(0.13333333,0,0,-0.13333333,0,2800)" />
      <path
         id="path29"
         d="m 6000,18000 v 0 0 c 0,1656.9 1343.15,3000 3000,3000 v 0 0 c 0,-1656.9 -1343.14,-3000 -3000,-3000"
         style="fill:#009193;fill-opacity:1;fill-rule:nonzero;stroke:none"
         transform="matrix(0.13333333,0,0,-0.13333333,0,2800)" />
      <path
         id="path30"
         d="m 9000,15000 v 0 c -1656.85,0 -3000,1343.1 -3000,3000 v 0 0 c 1656.86,0 3000,-1343.1 3000,-3000 v 0"
         style="fill:#0f3b56;fill-opacity:1;fill-rule:nonzero;stroke:none"
         transform="matrix(0.13333333,0,0,-0.13333333,0,2800)" />
      <path
         id="path31"
         d="m 3000,15000 v -1500 c -414.2,0 -789.2,-167.9 -1060.6,-439.4 C 1667.9,12789.2 1500,12414.2 1500,12000 H 0 c 0,828.4 335.801,1578.4 878.703,2121.3 C 1421.6,14664.2 2171.6,15000 3000,15000"
         style="fill:#f8a350;fill-opacity:1;fill-rule:nonzero;stroke:none"
         transform="matrix(0.13333333,0,0,-0.13333333,0,2800)" />
      <path
         id="path32"
         d="m 17998.5,18000 h -1500 c 0,414.2 -167.9,789.2 -439.4,1060.6 -271.4,271.5 -646.4,439.4 -1060.6,439.4 v 1500 c 828.4,0 1578.4,-335.8 2121.3,-878.7 542.9,-542.9 878.7,-1292.9 878.7,-2121.3"
         style="fill:#009193;fill-opacity:1;fill-rule:nonzero;stroke:none"
         transform="matrix(0.13333333,0,0,-0.13333333,0,2800)" />
      <path
         id="path33"
         d="m 12000,18000 h 1500 c 0,-414.2 167.9,-789.2 439.4,-1060.6 271.4,-271.5 646.4,-439.4 1060.6,-439.4 v -1500 c -828.4,0 -1578.4,335.8 -2121.3,878.7 -542.9,542.9 -878.7,1292.9 -878.7,2121.3"
         style="fill:#d12d50;fill-opacity:1;fill-rule:nonzero;stroke:none"
         transform="matrix(0.13333333,0,0,-0.13333333,0,2800)" />
      <path
         id="path34"
         d="M 3000,10500 V 9000 C 2171.6,9000 1421.6,9335.8 878.703,9878.7 335.801,10421.6 0,11171.6 0,12000 h 1500 c 0,-828.4 671.6,-1500 1500,-1500"
         style="fill:#0f3b56;fill-opacity:1;fill-rule:nonzero;stroke:none"
         transform="matrix(0.13333333,0,0,-0.13333333,0,2800)" />
      <path
         id="path35"
         d="m 15000,12000 v -1500 c -414.2,0 -789.2,-167.9 -1060.6,-439.4 C 13667.9,9789.2 13500,9414.2 13500,9000 h -1500 c 0,828.4 335.8,1578.4 878.7,2121.3 542.9,542.9 1292.9,878.7 2121.3,878.7"
         style="fill:#009193;fill-opacity:1;fill-rule:nonzero;stroke:none"
         transform="matrix(0.13333333,0,0,-0.13333333,0,2800)" />
      <path
         id="path36"
         d="M 15000,7500 V 6000 c -828.4,0 -1578.4,335.8 -2121.3,878.7 -542.9,542.9 -878.7,1292.9 -878.7,2121.3 h 1500 c 0,-828.4 671.6,-1500 1500,-1500"
         style="fill:#f8a350;fill-opacity:1;fill-rule:nonzero;stroke:none"
         transform="matrix(0.13333333,0,0,-0.13333333,0,2800)" />
      <path
         id="path37"
         d="M 6000,12000 H 4500 c 0,414.2 -167.9,789.2 -439.4,1060.6 -271.4,271.5 -646.4,439.4 -1060.6,439.4 v 1500 c 828.4,0 1578.4,-335.8 2121.3,-878.7 542.9,-542.9 878.7,-1292.9 878.7,-2121.3"
         style="fill:#d12d50;fill-opacity:1;fill-rule:nonzero;stroke:none"
         transform="matrix(0.13333333,0,0,-0.13333333,0,2800)" />
      <path
         id="path38"
         d="M 6000,12000 C 6000,10343.1 4656.9,9000 3000,9000 v 1500 c 414.2,0 789.2,167.9 1060.6,439.4 271.5,271.4 439.4,646.4 439.4,1060.6 h 1500"
         style="fill:#0f3b56;fill-opacity:1;fill-rule:nonzero;stroke:none"
         transform="matrix(0.13333333,0,0,-0.13333333,0,2800)" />
      <path
         id="path39"
         d="m 27000,21000 v -1500 c -414.2,0 -789.2,-167.9 -1060.6,-439.4 -271.5,-271.4 -439.4,-646.4 -439.4,-1060.6 h -1500 c 0,828.4 335.8,1578.4 878.7,2121.3 542.9,542.9 1292.9,878.7 2121.3,878.7"
         style="fill:#f8a350;fill-opacity:1;fill-rule:nonzero;stroke:none"
         transform="matrix(0.13333333,0,0,-0.13333333,0,2800)" />
      <path
         id="path40"
         d="m 27000,16500 v -1500 c -828.4,0 -1578.4,335.8 -2121.3,878.7 -542.9,542.9 -878.7,1292.9 -878.7,2121.3 h 1500 c 0,-828.4 671.6,-1500 1500,-1500"
         style="fill:#009193;fill-opacity:1;fill-rule:nonzero;stroke:none"
         transform="matrix(0.13333333,0,0,-0.13333333,0,2800)" />
      <path
         id="path41"
         d="m 30000,18000 h -1500 c 0,414.2 -167.9,789.2 -439.4,1060.6 -271.4,271.5 -646.4,439.4 -1060.6,439.4 v 1500 c 828.4,0 1578.4,-335.8 2121.3,-878.7 542.9,-542.9 878.7,-1292.9 878.7,-2121.3"
         style="fill:#009193;fill-opacity:1;fill-rule:nonzero;stroke:none"
         transform="matrix(0.13333333,0,0,-0.13333333,0,2800)" />
      <path
         id="path42"
         d="M 21000,3000 V 1500 c -414.2,0 -789.2,-167.9 -1060.6,-439.4 C 19667.9,789.203 19500,414.199 19500,0 h -1500 c 0,828.402 335.8,1578.4 878.7,2121.3 542.9,542.9 1292.9,878.7 2121.3,878.7"
         style="fill:#0f3b56;fill-opacity:1;fill-rule:nonzero;stroke:none"
         transform="matrix(0.13333333,0,0,-0.13333333,0,2800)" />
      <path
         id="path43"
         d="m 21000,0 v 1500 c 414.2,0 789.2,167.9 1060.6,439.4 271.5,271.4 439.4,646.4 439.4,1060.6 h 1500 c 0,-828.4 -335.8,-1578.4 -878.7,-2121.301 C 22578.4,335.801 21828.4,0 21000,0"
         style="fill:#d12d50;fill-opacity:1;fill-rule:nonzero;stroke:none"
         transform="matrix(0.13333333,0,0,-0.13333333,0,2800)" />
      <path
         id="path44"
         d="m 30000,18000 c 0,-1656.9 -1343.1,-3000 -3000,-3000 v 1500 c 414.2,0 789.2,167.9 1060.6,439.4 271.5,271.4 439.4,646.4 439.4,1060.6 h 1500"
         style="fill:#0f3b56;fill-opacity:1;fill-rule:nonzero;stroke:none"
         transform="matrix(0.13333333,0,0,-0.13333333,0,2800)" />
      <path
         id="path45"
         d="m 13500,13500 h 1500 c 0,-828.4 -671.6,-1500 -1500,-1500 v 1500"
         style="fill:#f8a350;fill-opacity:1;fill-rule:nonzero;stroke:none"
         transform="matrix(0.13333333,0,0,-0.13333333,0,2800)" />
      <path
         id="path46"
         d="m 13500,12000 h -1500 c 0,828.4 671.6,1500 1500,1500 v -1500"
         style="fill:#009193;fill-opacity:1;fill-rule:nonzero;stroke:none"
         transform="matrix(0.13333333,0,0,-0.13333333,0,2800)" />
      <path
         id="path47"
         d="m 6000,12000 v 0 c 0,1656.9 1343.15,3000 3000,3000 v 0 0 c 0,-1656.9 -1343.14,-3000 -3000,-3000 v 0"
         style="fill:#d12d50;fill-opacity:1;fill-rule:nonzero;stroke:none"
         transform="matrix(0.13333333,0,0,-0.13333333,0,2800)" />
      <path
         id="path48"
         d="m 3000,3000 v 0 h 0.01 C 4656.86,3000 6000,1656.9 6000,0 V 0 0 C 4343.14,0 3000,1343.1 3000,3000"
         style="fill:#009193;fill-opacity:1;fill-rule:nonzero;stroke:none"
         transform="matrix(0.13333333,0,0,-0.13333333,0,2800)" />
      <path
         id="path49"
         d="m 0,0 v 0 c 0.00390625,1656.9 1343.15,3000 3000,3000 v 0 0 C 3000,1343.1 1656.86,0 0.00390625,0 H 0"
         style="fill:#009193;fill-opacity:1;fill-rule:nonzero;stroke:none"
         transform="matrix(0.13333333,0,0,-0.13333333,0,2800)" />
      <path
         id="path50"
         d="M 3000,3000 H 0 v 3000 z"
         style="fill:#d12d50;fill-opacity:1;fill-rule:nonzero;stroke:none"
         transform="matrix(0.13333333,0,0,-0.13333333,0,2800)" />
      <path
         id="path51"
         d="M 6000.01,6000 6000,3000 H 3000 Z"
         style="fill:#009193;fill-opacity:1;fill-rule:nonzero;stroke:none"
         transform="matrix(0.13333333,0,0,-0.13333333,0,2800)" />
      <path
         id="path52"
         d="M 3000,9000 H 6000 V 6000 Z"
         style="fill:#f8a350;fill-opacity:1;fill-rule:nonzero;stroke:none"
         transform="matrix(0.13333333,0,0,-0.13333333,0,2800)" />
      <path
         id="path53"
         d="m 11250,7500 v 0 c -414.2,0 -750,335.8 -750,750 v 0 c 0,414.2 335.8,750 750,750 v 0 c 414.2,0 750,-335.8 750,-750 v 0 c 0,-414.2 -335.8,-750 -750,-750"
         style="fill:#d12d50;fill-opacity:1;fill-rule:nonzero;stroke:none"
         transform="matrix(0.13333333,0,0,-0.13333333,0,2800)" />
      <path
         id="path54"
         d="m 9750,6000 v 0 c -414.21,0 -750,335.8 -750,750 v 0 c 0,414.2 335.79,750 750,750 v 0 c 414.2,0 750,-335.8 750,-750 v 0 c 0,-414.2 -335.8,-750 -750,-750"
         style="fill:#0f3b56;fill-opacity:1;fill-rule:nonzero;stroke:none"
         transform="matrix(0.13333333,0,0,-0.13333333,0,2800)" />
      <path
         id="path55"
         d="m 15748.5,16500 v 0 c -414.2,0 -750,335.8 -750,750 v 0 c 0,414.2 335.8,750 750,750 v 0 c 414.2,0 750,-335.8 750,-750 v 0 c 0,-414.2 -335.8,-750 -750,-750"
         style="fill:#009193;fill-opacity:1;fill-rule:nonzero;stroke:none"
         transform="matrix(0.13333333,0,0,-0.13333333,0,2800)" />
      <path
         id="path56"
         d="m 17248.5,15000 v 0 c -414.2,0 -750,335.8 -750,750 v 0 c 0,414.2 335.8,750 750,750 v 0 c 414.2,0 750,-335.8 750,-750 v 0 c 0,-414.2 -335.8,-750 -750,-750"
         style="fill:#0f3b56;fill-opacity:1;fill-rule:nonzero;stroke:none"
         transform="matrix(0.13333333,0,0,-0.13333333,0,2800)" />
      <path
         id="path57"
         d="m 9000,6000 h 3000 L 10500,3000 Z"
         style="fill:#f8a350;fill-opacity:1;fill-rule:nonzero;stroke:none"
         transform="matrix(0.13333333,0,0,-0.13333333,0,2800)" />
      <path
         id="path58"
         d="m 21001.5,15000 v 3000 l 3000,-1500 z"
         style="fill:#0f3b56;fill-opacity:1;fill-rule:nonzero;stroke:none"
         transform="matrix(0.13333333,0,0,-0.13333333,0,2800)" />
      <path
         id="path59"
         d="m 24001.5,15000 v -3000 l -3000,1500 z"
         style="fill:#009193;fill-opacity:1;fill-rule:nonzero;stroke:none"
         transform="matrix(0.13333333,0,0,-0.13333333,0,2800)" />
      <path
         id="path60"
         d="m 27000.3,6000 v 3000 c 1656.9,0 3000,-1343.2 3000,-3000 v 0 h -3000"
         style="fill:#d12d50;fill-opacity:1;fill-rule:nonzero;stroke:none"
         transform="matrix(0.13333333,0,0,-0.13333333,0,2800)" />
      <path
         id="path61"
         d="m 15000,18000 h -3000 v 0 c 0,1656.9 1343.1,3000 3000,3000 v 0 -3000"
         style="fill:#0f3b56;fill-opacity:1;fill-rule:nonzero;stroke:none"
         transform="matrix(0.13333333,0,0,-0.13333333,0,2800)" />
      <path
         id="path62"
         d="m 14250,750 h -1500 v 1500 h 1500 V 750"
         style="fill:#d12d50;fill-opacity:1;fill-rule:nonzero;stroke:none"
         transform="matrix(0.13333333,0,0,-0.13333333,0,2800)" />
      <path
         id="path63"
         d="m 17998.8,13500 v 0 c 0,828.4 671.6,1500 1500,1500 v 0 -1500 h -1500"
         style="fill:#f8a350;fill-opacity:1;fill-rule:nonzero;stroke:none"
         transform="matrix(0.13333333,0,0,-0.13333333,0,2800)" />
      <path
         id="path64"
         d="m 19498.8,13500 v 0 c 0,-828.4 -671.6,-1500 -1500,-1500 v 0 1500 h 1500"
         style="fill:#009193;fill-opacity:1;fill-rule:nonzero;stroke:none"
         transform="matrix(0.13333333,0,0,-0.13333333,0,2800)" />
      <path
         id="path65"
         d="m 24000.3,7500 v 0 c 828.4,0 1500,-671.6 1500,-1500 v 0 h -1500 v 1500"
         style="fill:#0f3b56;fill-opacity:1;fill-rule:nonzero;stroke:none"
         transform="matrix(0.13333333,0,0,-0.13333333,0,2800)" />
      <path
         id="path66"
         d="m 25500,9000 v 0 c 0,-828.4 -671.6,-1500 -1500,-1500 v 0 1500 h 1500"
         style="fill:#f8a350;fill-opacity:1;fill-rule:nonzero;stroke:none"
         transform="matrix(0.13333333,0,0,-0.13333333,0,2800)" />
      <path
         id="path67"
         d="m 25500.6,6000 v 0 c 0,828.4 671.6,1500 1500,1500 v 0 -1500 h -1500"
         style="fill:#009193;fill-opacity:1;fill-rule:nonzero;stroke:none"
         transform="matrix(0.13333333,0,0,-0.13333333,0,2800)" />
      <path
         id="path68"
         d="m 27000.6,7500 v 0 c -828.4,0 -1500,671.6 -1500,1500 v 0 h 1500 V 7500"
         style="fill:#0f3b56;fill-opacity:1;fill-rule:nonzero;stroke:none"
         transform="matrix(0.13333333,0,0,-0.13333333,0,2800)" />
      <path
         id="path69"
         d="m 15000.3,4500 v 0 c -828.4,0 -1500,671.6 -1500,1500 v 0 h 1500 V 4500"
         style="fill:#009193;fill-opacity:1;fill-rule:nonzero;stroke:none"
         transform="matrix(0.13333333,0,0,-0.13333333,0,2800)" />
      <path
         id="path70"
         d="m 13500.3,3000 v 0 c 0,828.4 671.6,1500 1500,1500 v 0 -1500 h -1500"
         style="fill:#0f3b56;fill-opacity:1;fill-rule:nonzero;stroke:none"
         transform="matrix(0.13333333,0,0,-0.13333333,0,2800)" />
      <path
         id="path71"
         d="m 13499.7,6000 v 0 c 0,-828.4 -671.6,-1500 -1500,-1500 v 0 1500 h 1500"
         style="fill:#f8a350;fill-opacity:1;fill-rule:nonzero;stroke:none"
         transform="matrix(0.13333333,0,0,-0.13333333,0,2800)" />
      <path
         id="path72"
         d="m 11999.7,4500 v 0 c 828.4,0 1500,-671.6 1500,-1500 v 0 h -1500 v 1500"
         style="fill:#009193;fill-opacity:1;fill-rule:nonzero;stroke:none"
         transform="matrix(0.13333333,0,0,-0.13333333,0,2800)" />
      <path
         id="path73"
         d="m 17999.1,13500 v 0 c -828.4,0 -1500,671.6 -1500,1500 v 0 h 1500 v -1500"
         style="fill:#009193;fill-opacity:1;fill-rule:nonzero;stroke:none"
         transform="matrix(0.13333333,0,0,-0.13333333,0,2800)" />
      <path
         id="path74"
         d="m 16499.1,12000 v 0 c 0,828.4 671.6,1500 1500,1500 v 0 -1500 h -1500"
         style="fill:#f8a350;fill-opacity:1;fill-rule:nonzero;stroke:none"
         transform="matrix(0.13333333,0,0,-0.13333333,0,2800)" />
      <path
         id="path75"
         d="m 16498.5,15000 v 0 c 0,-828.4 -671.6,-1500 -1500,-1500 v 0 1500 h 1500"
         style="fill:#d12d50;fill-opacity:1;fill-rule:nonzero;stroke:none"
         transform="matrix(0.13333333,0,0,-0.13333333,0,2800)" />
      <path
         id="path76"
         d="m 15000,13500 v 0 c -828.4,0 -1500,671.6 -1500,1500 v 0 h 1500 v -1500"
         style="fill:#0f3b56;fill-opacity:1;fill-rule:nonzero;stroke:none"
         transform="matrix(0.13333333,0,0,-0.13333333,0,2800)" />
      <path
         id="path77"
         d="m 13500,13500 v 0 c -828.4,0 -1500,671.6 -1500,1500 v 0 h 1500 v -1500"
         style="fill:#0f3b56;fill-opacity:1;fill-rule:nonzero;stroke:none"
         transform="matrix(0.13333333,0,0,-0.13333333,0,2800)" />
      <path
         id="path78"
         d="m 14998.5,13500 v 0 c 828.4,0 1500,-671.6 1500,-1500 v 0 h -1500 v 1500"
         style="fill:#0f3b56;fill-opacity:1;fill-rule:nonzero;stroke:none"
         transform="matrix(0.13333333,0,0,-0.13333333,0,2800)" />
      <path
         id="path79"
         d="M 1939.35,6000 3000.01,7060.7 4060.67,6000 3000.01,4939.3 1939.35,6000"
         style="fill:#009193;fill-opacity:1;fill-rule:nonzero;stroke:none"
         transform="matrix(0.13333333,0,0,-0.13333333,0,2800)" />
      <path
         id="path80"
         d="m 24000,3000 v 3000 h 3000 z"
         style="fill:#0f3b56;fill-opacity:1;fill-rule:nonzero;stroke:none"
         transform="matrix(0.13333333,0,0,-0.13333333,0,2800)" />
      <path
         id="path81"
         d="M 27000,0 H 24000 V 3000 Z"
         style="fill:#009193;fill-opacity:1;fill-rule:nonzero;stroke:none"
         transform="matrix(0.13333333,0,0,-0.13333333,0,2800)" />
      <path
         id="path82"
         d="M 30000,3000 V 0 h -3000 z"
         style="fill:#f8a350;fill-opacity:1;fill-rule:nonzero;stroke:none"
         transform="matrix(0.13333333,0,0,-0.13333333,0,2800)" />
      <path
         id="path83"
         d="m 27000,6000 h 3000 V 3000 Z"
         style="fill:#009193;fill-opacity:1;fill-rule:nonzero;stroke:none"
         transform="matrix(0.13333333,0,0,-0.13333333,0,2800)" />
      <path
         id="path84"
         d="m 26251.5,2250 v 1500 h 1500 V 2250 h -1500"
         style="fill:#0f3b56;fill-opacity:1;fill-rule:nonzero;stroke:none"
         transform="matrix(0.13333333,0,0,-0.13333333,0,2800)" />
      <path
         id="path85"
         d="m 16500,0 h -1500 l 749.9,1299 z"
         style="fill:#d12d50;fill-opacity:1;fill-rule:nonzero;stroke:none"
         transform="matrix(0.13333333,0,0,-0.13333333,0,2800)" />
      <path
         id="path86"
         d="m 18000,0 h -1500 l 749.9,1299 z"
         style="fill:#f8a350;fill-opacity:1;fill-rule:nonzero;stroke:none"
         transform="matrix(0.13333333,0,0,-0.13333333,0,2800)" />
      <path
         id="path87"
         d="m 16500,3000 h 1500 l -749.9,-1299 z"
         style="fill:#0f3b56;fill-opacity:1;fill-rule:nonzero;stroke:none"
         transform="matrix(0.13333333,0,0,-0.13333333,0,2800)" />
      <path
         id="path88"
         d="m 15000,3000 h 1500 l -749.9,-1299 z"
         style="fill:#0f3b56;fill-opacity:1;fill-rule:nonzero;stroke:none"
         transform="matrix(0.13333333,0,0,-0.13333333,0,2800)" />
      <path
         id="path89"
         d="m 24001.2,10500 v 1500 l 1299,-749.9 z"
         style="fill:#009193;fill-opacity:1;fill-rule:nonzero;stroke:none"
         transform="matrix(0.13333333,0,0,-0.13333333,0,2800)" />
      <path
         id="path90"
         d="m 24001.2,9000 v 1500 l 1299,-749.9 z"
         style="fill:#0f3b56;fill-opacity:1;fill-rule:nonzero;stroke:none"
         transform="matrix(0.13333333,0,0,-0.13333333,0,2800)" />
      <path
         id="path91"
         d="M 27001.2,10500 V 9000 l -1299,749.9 z"
         style="fill:#0f3b56;fill-opacity:1;fill-rule:nonzero;stroke:none"
         transform="matrix(0.13333333,0,0,-0.13333333,0,2800)" />
      <path
         id="path92"
         d="m 20992.2,13500 v -1500 l -1485.6,749.9 z"
         style="fill:#0f3b56;fill-opacity:1;fill-rule:nonzero;stroke:none"
         transform="matrix(0.13333333,0,0,-0.13333333,0,2800)" />
      <path
         id="path93"
         d="m 27001.2,12000 v -1500 l -1299,749.9 z"
         style="fill:#009193;fill-opacity:1;fill-rule:nonzero;stroke:none"
         transform="matrix(0.13333333,0,0,-0.13333333,0,2800)" />
      <path
         id="path94"
         d="m 21007.8,15000 v -1500 l -1485.6,749.9 z"
         style="fill:#0f3b56;fill-opacity:1;fill-rule:nonzero;stroke:none"
         transform="matrix(0.13333333,0,0,-0.13333333,0,2800)" />
      <path
         id="path95"
         d="m 18375.3,20434 v 0 c -103.5,0 -187.5,83.9 -187.5,187.5 v 0 c 0,103.5 84,187.5 187.5,187.5 v 0 c 103.6,0 187.5,-84 187.5,-187.5 v 0 c 0,-103.6 -83.9,-187.5 -187.5,-187.5"
         style="fill:#0f3b56;fill-opacity:1;fill-rule:nonzero;stroke:none"
         transform="matrix(0.13333333,0,0,-0.13333333,0,2800)" />
      <path
         id="path96"
         d="m 18375.3,19686.3 v 0 c -103.5,0 -187.5,84 -187.5,187.5 v 0 c 0,103.6 84,187.5 187.5,187.5 v 0 c 103.6,0 187.5,-83.9 187.5,-187.5 v 0 c 0,-103.5 -83.9,-187.5 -187.5,-187.5"
         style="fill:#009193;fill-opacity:1;fill-rule:nonzero;stroke:none"
         transform="matrix(0.13333333,0,0,-0.13333333,0,2800)" />
      <path
         id="path97"
         d="m 18375.3,18938.7 v 0 c -103.5,0 -187.5,83.9 -187.5,187.5 v 0 c 0,103.5 84,187.5 187.5,187.5 v 0 c 103.6,0 187.5,-84 187.5,-187.5 v 0 c 0,-103.6 -83.9,-187.5 -187.5,-187.5"
         style="fill:#d12d50;fill-opacity:1;fill-rule:nonzero;stroke:none"
         transform="matrix(0.13333333,0,0,-0.13333333,0,2800)" />
      <path
         id="path98"
         d="m 18375.3,18191 v 0 c -103.5,0 -187.5,84 -187.5,187.5 v 0 c 0,103.6 84,187.5 187.5,187.5 v 0 c 103.6,0 187.5,-83.9 187.5,-187.5 v 0 c 0,-103.5 -83.9,-187.5 -187.5,-187.5"
         style="fill:#0f3b56;fill-opacity:1;fill-rule:nonzero;stroke:none"
         transform="matrix(0.13333333,0,0,-0.13333333,0,2800)" />
      <path
         id="path99"
         d="m 19125.1,20434 v 0 c -103.5,0 -187.5,83.9 -187.5,187.5 v 0 c 0,103.5 84,187.5 187.5,187.5 v 0 c 103.6,0 187.5,-84 187.5,-187.5 v 0 c 0,-103.6 -83.9,-187.5 -187.5,-187.5"
         style="fill:#0f3b56;fill-opacity:1;fill-rule:nonzero;stroke:none"
         transform="matrix(0.13333333,0,0,-0.13333333,0,2800)" />
      <path
         id="path100"
         d="m 19125.1,19686.3 v 0 c -103.5,0 -187.5,84 -187.5,187.5 v 0 c 0,103.6 84,187.5 187.5,187.5 v 0 c 103.6,0 187.5,-83.9 187.5,-187.5 v 0 c 0,-103.5 -83.9,-187.5 -187.5,-187.5"
         style="fill:#0f3b56;fill-opacity:1;fill-rule:nonzero;stroke:none"
         transform="matrix(0.13333333,0,0,-0.13333333,0,2800)" />
      <path
         id="path101"
         d="m 19125.1,18938.7 v 0 c -103.5,0 -187.5,83.9 -187.5,187.5 v 0 c 0,103.5 84,187.5 187.5,187.5 v 0 c 103.6,0 187.5,-84 187.5,-187.5 v 0 c 0,-103.6 -83.9,-187.5 -187.5,-187.5"
         style="fill:#f8a350;fill-opacity:1;fill-rule:nonzero;stroke:none"
         transform="matrix(0.13333333,0,0,-0.13333333,0,2800)" />
      <path
         id="path102"
         d="m 19125.1,18191 v 0 c -103.5,0 -187.5,84 -187.5,187.5 v 0 c 0,103.6 84,187.5 187.5,187.5 v 0 c 103.6,0 187.5,-83.9 187.5,-187.5 v 0 c 0,-103.5 -83.9,-187.5 -187.5,-187.5"
         style="fill:#d12d50;fill-opacity:1;fill-rule:nonzero;stroke:none"
         transform="matrix(0.13333333,0,0,-0.13333333,0,2800)" />
      <path
         id="path103"
         d="m 19874.9,20434 v 0 c -103.6,0 -187.5,83.9 -187.5,187.5 v 0 c 0,103.5 83.9,187.5 187.5,187.5 v 0 c 103.5,0 187.5,-84 187.5,-187.5 v 0 c 0,-103.6 -84,-187.5 -187.5,-187.5"
         style="fill:#0f3b56;fill-opacity:1;fill-rule:nonzero;stroke:none"
         transform="matrix(0.13333333,0,0,-0.13333333,0,2800)" />
      <path
         id="path104"
         d="m 19874.9,19686.3 v 0 c -103.6,0 -187.5,84 -187.5,187.5 v 0 c 0,103.6 83.9,187.5 187.5,187.5 v 0 c 103.5,0 187.5,-83.9 187.5,-187.5 v 0 c 0,-103.5 -84,-187.5 -187.5,-187.5"
         style="fill:#0f3b56;fill-opacity:1;fill-rule:nonzero;stroke:none"
         transform="matrix(0.13333333,0,0,-0.13333333,0,2800)" />
      <path
         id="path105"
         d="m 19874.9,18938.7 v 0 c -103.6,0 -187.5,83.9 -187.5,187.5 v 0 c 0,103.5 83.9,187.5 187.5,187.5 v 0 c 103.5,0 187.5,-84 187.5,-187.5 v 0 c 0,-103.6 -84,-187.5 -187.5,-187.5"
         style="fill:#009193;fill-opacity:1;fill-rule:nonzero;stroke:none"
         transform="matrix(0.13333333,0,0,-0.13333333,0,2800)" />
      <path
         id="path106"
         d="m 19874.9,18191 v 0 c -103.6,0 -187.5,84 -187.5,187.5 v 0 c 0,103.6 83.9,187.5 187.5,187.5 v 0 c 103.5,0 187.5,-83.9 187.5,-187.5 v 0 c 0,-103.5 -84,-187.5 -187.5,-187.5"
         style="fill:#009193;fill-opacity:1;fill-rule:nonzero;stroke:none"
         transform="matrix(0.13333333,0,0,-0.13333333,0,2800)" />
      <path
         id="path107"
         d="m 20624.7,20434 v 0 c -103.6,0 -187.5,83.9 -187.5,187.5 v 0 c 0,103.5 83.9,187.5 187.5,187.5 v 0 c 103.5,0 187.5,-84 187.5,-187.5 v 0 c 0,-103.6 -84,-187.5 -187.5,-187.5"
         style="fill:#f8a350;fill-opacity:1;fill-rule:nonzero;stroke:none"
         transform="matrix(0.13333333,0,0,-0.13333333,0,2800)" />
      <path
         id="path108"
         d="m 20624.7,19686.3 v 0 c -103.6,0 -187.5,84 -187.5,187.5 v 0 c 0,103.6 83.9,187.5 187.5,187.5 v 0 c 103.5,0 187.5,-83.9 187.5,-187.5 v 0 c 0,-103.5 -84,-187.5 -187.5,-187.5"
         style="fill:#d12d50;fill-opacity:1;fill-rule:nonzero;stroke:none"
         transform="matrix(0.13333333,0,0,-0.13333333,0,2800)" />
      <path
         id="path109"
         d="m 20624.7,18938.7 v 0 c -103.6,0 -187.5,83.9 -187.5,187.5 v 0 c 0,103.5 83.9,187.5 187.5,187.5 v 0 c 103.5,0 187.5,-84 187.5,-187.5 v 0 c 0,-103.6 -84,-187.5 -187.5,-187.5"
         style="fill:#0f3b56;fill-opacity:1;fill-rule:nonzero;stroke:none"
         transform="matrix(0.13333333,0,0,-0.13333333,0,2800)" />
      <path
         id="path110"
         d="m 20624.7,18191 v 0 c -103.6,0 -187.5,84 -187.5,187.5 v 0 c 0,103.6 83.9,187.5 187.5,187.5 v 0 c 103.5,0 187.5,-83.9 187.5,-187.5 v 0 c 0,-103.5 -84,-187.5 -187.5,-187.5"
         style="fill:#f8a350;fill-opacity:1;fill-rule:nonzero;stroke:none"
         transform="matrix(0.13333333,0,0,-0.13333333,0,2800)" />
      <path
         id="path111"
         d="M 17030.4,3969.7 C 16894.7,3833.9 16707.1,3750 16500,3750 c -414.2,0 -750,335.8 -750,750 0,207.1 83.9,394.7 219.7,530.4 135.7,135.7 323.2,219.6 530.3,219.6 207.1,0 394.7,-83.9 530.4,-219.6 135.7,-135.7 219.6,-323.3 219.6,-530.4 0,-207.1 -83.9,-394.6 -219.6,-530.3 z m 530.3,1591 c -271.4,271.4 -646.4,439.3 -1060.7,439.3 -414.2,0 -789.2,-167.9 -1060.7,-439.3 -271.4,-271.4 -439.3,-646.4 -439.3,-1060.7 0,-828.4 671.6,-1500 1500,-1500 414.3,0 789.3,167.9 1060.7,439.3 271.4,271.5 439.3,646.5 439.3,1060.7 0,414.3 -167.9,789.3 -439.3,1060.7"
         style="fill:#009193;fill-opacity:1;fill-rule:nonzero;stroke:none"
         transform="matrix(0.13333333,0,0,-0.13333333,0,2800)" />
      <path
         id="path112"
         d="m 14998.8,9000 v 3000 c 1656.9,0 3000,-1343.1 3000,-3000 v 0 h -3000"
         style="fill:#009193;fill-opacity:1;fill-rule:nonzero;stroke:none"
         transform="matrix(0.13333333,0,0,-0.13333333,0,2800)" />
      <path
         id="path113"
         d="m 17998.8,9000 v 3000 c 1656.9,0 3000,-1343.1 3000,-3000 v 0 h -3000"
         style="fill:#d12d50;fill-opacity:1;fill-rule:nonzero;stroke:none"
         transform="matrix(0.13333333,0,0,-0.13333333,0,2800)" />
      <path
         id="path114"
         d="m 20998.8,6000 h -3000 v 0 c 0,1656.9 1343.2,3000 3000,3000 v 0 -3000"
         style="fill:#d12d50;fill-opacity:1;fill-rule:nonzero;stroke:none"
         transform="matrix(0.13333333,0,0,-0.13333333,0,2800)" />
      <path
         id="path115"
         d="m 17998.8,6000 h 3000 v -0.1 c 0,-1656.8 -1343.1,-2999.9 -3000,-2999.9 v 0 3000"
         style="fill:#009193;fill-opacity:1;fill-rule:nonzero;stroke:none"
         transform="matrix(0.13333333,0,0,-0.13333333,0,2800)" />
      <path
         id="path116"
         d="m 14998.8,6000 v 3000 c 1656.9,0 3000,-1343.1 3000,-3000 v 0 h -3000"
         style="fill:#0f3b56;fill-opacity:1;fill-rule:nonzero;stroke:none"
         transform="matrix(0.13333333,0,0,-0.13333333,0,2800)" />
      <path
         id="path117"
         d="m 27000,12000 v 0 0 c 0,1656.9 1343.1,3000 3000,3000 v 0 0 c 0,-1656.9 -1343.1,-3000 -3000,-3000"
         style="fill:#009193;fill-opacity:1;fill-rule:nonzero;stroke:none"
         transform="matrix(0.13333333,0,0,-0.13333333,0,2800)" />
      <path
         id="path118"
         d="m 30000,9000 v 0 c -1656.9,0 -3000,1343.1 -3000,3000 v 0 0 c 1656.9,0 3000,-1343.1 3000,-3000 v 0"
         style="fill:#0f3b56;fill-opacity:1;fill-rule:nonzero;stroke:none"
         transform="matrix(0.13333333,0,0,-0.13333333,0,2800)" />
      <path
         id="path119"
         d="m 21000,9000 v 0 c 0,1656.9 1343.1,3000 3000,3000 v 0 0 c 0,-1656.9 -1343.1,-3000 -3000,-3000 v 0"
         style="fill:#009193;fill-opacity:1;fill-rule:nonzero;stroke:none"
         transform="matrix(0.13333333,0,0,-0.13333333,0,2800)" />
      <path
         id="path120"
         d="m 18000,18000 v 0 c 1656.9,0 3000,-1343.1 3000,-3000 v 0 0 c -1656.9,0 -3000,1343.1 -3000,3000 v 0"
         style="fill:#f8a350;fill-opacity:1;fill-rule:nonzero;stroke:none"
         transform="matrix(0.13333333,0,0,-0.13333333,0,2800)" />
      <path
         id="path121"
         d="m 9000.01,11333.3 v 333.4 H 12000 v -333.4 H 9000.01"
         style="fill:#d12d50;fill-opacity:1;fill-rule:nonzero;stroke:none"
         transform="matrix(0.13333333,0,0,-0.13333333,0,2800)" />
      <path
         id="path122"
         d="M 9000.01,10666.7 V 11000 H 12000 v -333.3 H 9000.01"
         style="fill:#009193;fill-opacity:1;fill-rule:nonzero;stroke:none"
         transform="matrix(0.13333333,0,0,-0.13333333,0,2800)" />
      <path
         id="path123"
         d="m 9000.01,10000 v 333.3 H 12000 V 10000 H 9000.01"
         style="fill:#f8a350;fill-opacity:1;fill-rule:nonzero;stroke:none"
         transform="matrix(0.13333333,0,0,-0.13333333,0,2800)" />
      <path
         id="path124"
         d="m 9000.01,9333.3 v 333.4 H 12000 V 9333.3 H 9000.01"
         style="fill:#0f3b56;fill-opacity:1;fill-rule:nonzero;stroke:none"
         transform="matrix(0.13333333,0,0,-0.13333333,0,2800)" />
      <path
         id="path125"
         d="m 24000,6817.2 v -360.4 c -201.2,-12.9 -360.9,-180.7 -360.9,-385 V 3000 h -360 v 3071.8 c 0,402.9 321.2,732.2 720.9,745.4"
         style="fill:#0f3b56;fill-opacity:1;fill-rule:nonzero;stroke:none"
         transform="matrix(0.13333333,0,0,-0.13333333,0,2800)" />
      <path
         id="path126"
         d="m 24000,7473.3 v -360 C 23437,7100.1 22983.1,6638 22983.1,6071.8 V 3000 h -360 v 3071.8 c 0,764.7 615.3,1388.2 1376.9,1401.5"
         style="fill:#0f3b56;fill-opacity:1;fill-rule:nonzero;stroke:none"
         transform="matrix(0.13333333,0,0,-0.13333333,0,2800)" />
      <path
         id="path127"
         d="m 24000,8129.5 v -360 c -924.8,-13.3 -1673,-769.8 -1673,-1697.7 V 3000 h -360 v 3071.8 c 0,1126.4 909.7,2044.4 2033,2057.7"
         style="fill:#f8a350;fill-opacity:1;fill-rule:nonzero;stroke:none"
         transform="matrix(0.13333333,0,0,-0.13333333,0,2800)" />
      <path
         id="path128"
         d="M 24000,8785.6 V 8425.5 C 22713.4,8412.2 21671,7361.4 21671,6071.8 V 3000 h -360 v 3071.8 c 0,724.9 282.3,1406.4 794.9,1919 506.7,506.7 1178.5,788.4 1894.1,794.8"
         style="fill:#f8a350;fill-opacity:1;fill-rule:nonzero;stroke:none"
         transform="matrix(0.13333333,0,0,-0.13333333,0,2800)" />
      <path
         id="path129"
         d="m 22500,19500 v 0 0 c -828.4,0 -1500,671.6 -1500,1500 v 0 0 c 828.4,0 1500,-671.6 1500,-1500"
         style="fill:#0f3b56;fill-opacity:1;fill-rule:nonzero;stroke:none"
         transform="matrix(0.13333333,0,0,-0.13333333,0,2800)" />
      <path
         id="path130"
         d="m 22500,19500 v 0 0 c 0,828.4 671.6,1500 1500,1500 v 0 0 c 0,-828.4 -671.6,-1500 -1500,-1500"
         style="fill:#0f3b56;fill-opacity:1;fill-rule:nonzero;stroke:none"
         transform="matrix(0.13333333,0,0,-0.13333333,0,2800)" />
      <path
         id="path131"
         d="m 22500,19500 v 0 0 c 828.4,0 1500,-671.6 1500,-1500 v 0 0 c -828.4,0 -1500,671.6 -1500,1500"
         style="fill:#0f3b56;fill-opacity:1;fill-rule:nonzero;stroke:none"
         transform="matrix(0.13333333,0,0,-0.13333333,0,2800)" />
      <path
         id="path132"
         d="m 22500,19500 v 0 0 c 0,-828.4 -671.6,-1500 -1500,-1500 v 0 0 c 0,828.4 671.6,1500 1500,1500"
         style="fill:#f8a350;fill-opacity:1;fill-rule:nonzero;stroke:none"
         transform="matrix(0.13333333,0,0,-0.13333333,0,2800)" />
      <path
         id="path133"
         d="m 7500,7500 v 0 0 c -828.43,0 -1500,671.6 -1500,1500 v 0 0 c 828.43,0 1500,-671.6 1500,-1500"
         style="fill:#009193;fill-opacity:1;fill-rule:nonzero;stroke:none"
         transform="matrix(0.13333333,0,0,-0.13333333,0,2800)" />
      <path
         id="path134"
         d="m 7500,7500 v 0 0 c 0,828.4 671.57,1500 1500,1500 v 0 0 c 0,-828.4 -671.57,-1500 -1500,-1500"
         style="fill:#f8a350;fill-opacity:1;fill-rule:nonzero;stroke:none"
         transform="matrix(0.13333333,0,0,-0.13333333,0,2800)" />
      <path
         id="path135"
         d="m 7500,7500 v 0 0 c 828.43,0 1500,-671.6 1500,-1500 v 0 0 c -828.43,0 -1500,671.6 -1500,1500"
         style="fill:#009193;fill-opacity:1;fill-rule:nonzero;stroke:none"
         transform="matrix(0.13333333,0,0,-0.13333333,0,2800)" />
      <path
         id="path136"
         d="m 7500,7500 v 0 0 c 0,-828.4 -671.57,-1500 -1500,-1500 v 0 0 c 0,828.4 671.58,1500 1500,1500"
         style="fill:#009193;fill-opacity:1;fill-rule:nonzero;stroke:none"
         transform="matrix(0.13333333,0,0,-0.13333333,0,2800)" />
      <path
         id="path137"
         d="m 24817.2,12000 h -360.4 c -12.9,201.2 -180.7,360.9 -385,360.9 h -71.8 v 360 h 71.8 c 402.9,0 732.2,-321.2 745.4,-720.9"
         style="fill:#d12d50;fill-opacity:1;fill-rule:nonzero;stroke:none"
         transform="matrix(0.13333333,0,0,-0.13333333,0,2800)" />
      <path
         id="path138"
         d="m 25473.3,12000 h -360 c -13.2,563 -475.3,1016.9 -1041.5,1016.9 h -71.8 v 360 h 71.8 c 764.7,0 1388.2,-615.3 1401.5,-1376.9"
         style="fill:#0f3b56;fill-opacity:1;fill-rule:nonzero;stroke:none"
         transform="matrix(0.13333333,0,0,-0.13333333,0,2800)" />
      <path
         id="path139"
         d="m 26129.5,12000 h -360 c -13.3,924.8 -769.8,1673 -1697.7,1673 h -71.8 v 360 h 71.8 c 1126.4,0 2044.4,-909.7 2057.7,-2033"
         style="fill:#009193;fill-opacity:1;fill-rule:nonzero;stroke:none"
         transform="matrix(0.13333333,0,0,-0.13333333,0,2800)" />
      <path
         id="path140"
         d="m 26785.6,12000 h -360.1 c -13.3,1286.6 -1064.1,2329 -2353.7,2329 h -71.8 v 360 h 71.8 c 724.9,0 1406.4,-282.3 1919,-794.9 506.7,-506.7 788.4,-1178.5 794.8,-1894.1"
         style="fill:#f8a350;fill-opacity:1;fill-rule:nonzero;stroke:none"
         transform="matrix(0.13333333,0,0,-0.13333333,0,2800)" />
      <path
         id="path141"
         d="m 9000,2182.8 v 360.4 c 201.2,12.9 360.9,180.7 360.9,385 v 71.8 h 360 v -71.8 c 0,-402.9 -321.2,-732.2 -720.9,-745.4"
         style="fill:#0f3b56;fill-opacity:1;fill-rule:nonzero;stroke:none"
         transform="matrix(0.13333333,0,0,-0.13333333,0,2800)" />
      <path
         id="path142"
         d="m 9000,1526.7 v 360 c 563,13.2 1016.9,475.3 1016.9,1041.5 v 71.8 h 360 v -71.8 C 10376.9,2163.5 9761.6,1540 9000,1526.7"
         style="fill:#f8a350;fill-opacity:1;fill-rule:nonzero;stroke:none"
         transform="matrix(0.13333333,0,0,-0.13333333,0,2800)" />
      <path
         id="path143"
         d="m 9000,870.5 v 360 c 924.8,13.3 1673,769.8 1673,1697.7 v 71.8 h 360 v -71.8 C 11033,1801.8 10123.3,883.801 9000,870.5"
         style="fill:#009193;fill-opacity:1;fill-rule:nonzero;stroke:none"
         transform="matrix(0.13333333,0,0,-0.13333333,0,2800)" />
      <path
         id="path144"
         d="M 9000,214.398 V 574.5 c 1286.6,13.301 2329,1064.1 2329,2353.7 v 71.8 h 360 v -71.8 c 0,-724.9 -282.3,-1406.4 -794.9,-1919 C 10387.4,502.5 9715.6,220.801 9000,214.398"
         style="fill:#d12d50;fill-opacity:1;fill-rule:nonzero;stroke:none"
         transform="matrix(0.13333333,0,0,-0.13333333,0,2800)" />
    </g>
  </g>
</svg>
