<?xml version="1.0" encoding="UTF-8"?>
<svg xmlns="http://www.w3.org/2000/svg" xmlns:xlink="http://www.w3.org/1999/xlink" width="3537" height="5306" viewBox="0 0 3537 5306">
<path fill-rule="evenodd" fill="rgb(96.875%, 61.131287%, 16.088867%)" fill-opacity="1" d="M 1768.378906 0.941406 L 2652.53125 0.941406 L 2652.53125 1769.230469 L 1768.378906 1769.230469 L 1768.378906 0.941406 "/>
<path fill-rule="evenodd" fill="rgb(92.96875%, 27.43988%, 34.521484%)" fill-opacity="1" d="M 1768.378906 3537.519531 L 3536.671875 3537.519531 L 3536.671875 5305.816406 L 1768.378906 5305.816406 L 1768.378906 3537.519531 "/>
<path fill-rule="evenodd" fill="rgb(94.53125%, 90.625%, 83.201599%)" fill-opacity="1" d="M 0.0859375 0.941406 L 1768.378906 0.941406 L 1768.378906 1769.230469 L 0.0859375 1769.230469 L 0.0859375 0.941406 "/>
<path fill-rule="evenodd" fill="rgb(96.875%, 61.131287%, 16.088867%)" fill-opacity="1" d="M 1768.378906 0.941406 L 3536.671875 0.941406 L 3536.671875 1769.230469 L 1768.378906 1769.230469 L 1768.378906 0.941406 "/>
<path fill-rule="evenodd" fill="rgb(92.96875%, 27.43988%, 34.521484%)" fill-opacity="1" d="M 0.0859375 1769.230469 L 1768.378906 1769.230469 L 1768.378906 3537.519531 L 0.0859375 3537.519531 L 0.0859375 1769.230469 "/>
<path fill-rule="evenodd" fill="rgb(97.264099%, 64.256287%, 1.179504%)" fill-opacity="1" d="M 0.0859375 3537.519531 L 1768.378906 3537.519531 L 1768.378906 5305.816406 L 0.0859375 5305.816406 L 0.0859375 3537.519531 "/>
<path fill-rule="evenodd" fill="rgb(94.53125%, 90.625%, 83.201599%)" fill-opacity="1" d="M 1768.378906 1769.230469 L 3536.671875 1769.230469 L 3536.671875 3537.519531 L 1768.378906 3537.519531 L 1768.378906 1769.230469 "/>
<path fill-rule="evenodd" fill="rgb(30.979919%, 24.705505%, 34.910583%)" fill-opacity="1" d="M 0.0859375 0.941406 L 884.234375 0.941406 L 884.234375 1769.230469 L 0.0859375 1769.230469 L 0.0859375 0.941406 "/>
<path fill-rule="evenodd" fill="rgb(7.054138%, 69.334412%, 76.171875%)" fill-opacity="1" d="M 1768.378906 0.941406 L 2652.53125 0.941406 L 2652.53125 1769.230469 L 1768.378906 1769.230469 L 1768.378906 0.941406 "/>
<path fill-rule="evenodd" fill="rgb(92.96875%, 27.43988%, 34.521484%)" fill-opacity="1" d="M 0.0859375 1769.230469 L 884.234375 1769.230469 L 884.234375 3537.519531 L 0.0859375 3537.519531 L 0.0859375 1769.230469 "/>
<path fill-rule="evenodd" fill="rgb(30.979919%, 24.705505%, 34.910583%)" fill-opacity="1" d="M 0.0859375 3537.519531 L 884.234375 3537.519531 L 884.234375 5305.816406 L 0.0859375 5305.816406 L 0.0859375 3537.519531 "/>
<path fill-rule="evenodd" fill="rgb(96.875%, 61.131287%, 16.088867%)" fill-opacity="1" d="M 884.234375 0.941406 L 442.164062 443.011719 L 0.0859375 0.941406 Z M 884.234375 0.941406 "/>
<path fill-rule="evenodd" fill="rgb(96.875%, 61.131287%, 16.088867%)" fill-opacity="1" d="M 884.234375 443.011719 L 442.164062 885.078125 L 0.0859375 443.011719 Z M 884.234375 443.011719 "/>
<path fill-rule="evenodd" fill="rgb(92.96875%, 27.43988%, 34.521484%)" fill-opacity="1" d="M 1768.378906 1769.230469 C 1768.378906 1525.078125 1570.460938 1327.160156 1326.308594 1327.160156 C 1082.160156 1327.160156 884.234375 1525.078125 884.234375 1769.230469 L 1768.378906 1769.230469 "/>
<path fill-rule="evenodd" fill="rgb(30.979919%, 24.705505%, 34.910583%)" fill-opacity="1" d="M 2652.53125 0.941406 L 1768.378906 0.941406 L 2652.53125 885.078125 Z M 2652.53125 0.941406 "/>
<path fill-rule="evenodd" fill="rgb(96.875%, 61.131287%, 16.088867%)" fill-opacity="1" d="M 2652.53125 885.078125 L 1768.378906 885.078125 L 2652.53125 1769.230469 Z M 2652.53125 885.078125 "/>
<path fill-rule="evenodd" fill="rgb(30.979919%, 24.705505%, 34.910583%)" fill-opacity="1" d="M 1768.378906 1769.230469 L 2652.53125 1769.230469 L 2652.53125 3537.519531 L 1768.378906 3537.519531 L 1768.378906 1769.230469 "/>
<path fill-rule="evenodd" fill="rgb(30.979919%, 24.705505%, 34.910583%)" fill-opacity="1" d="M 1768.378906 3537.519531 L 2652.53125 3537.519531 L 2652.53125 5305.816406 L 1768.378906 5305.816406 L 1768.378906 3537.519531 "/>
<path fill-rule="evenodd" fill="rgb(92.96875%, 27.43988%, 34.521484%)" fill-opacity="1" d="M 1768.378906 1327.160156 C 1768.378906 1083.011719 1570.460938 885.078125 1326.308594 885.078125 C 1082.160156 885.078125 884.234375 1083.011719 884.234375 1327.160156 L 1768.378906 1327.160156 "/>
<path fill-rule="evenodd" fill="rgb(7.054138%, 69.334412%, 76.171875%)" fill-opacity="1" d="M 884.234375 885.078125 L 442.164062 1327.160156 L 0.0859375 885.078125 Z M 884.234375 885.078125 "/>
<path fill-rule="evenodd" fill="rgb(7.054138%, 69.334412%, 76.171875%)" fill-opacity="1" d="M 884.234375 1327.160156 L 442.164062 1769.230469 L 0.0859375 1327.160156 Z M 884.234375 1327.160156 "/>
<path fill-rule="evenodd" fill="rgb(30.979919%, 24.705505%, 34.910583%)" fill-opacity="1" d="M 1768.378906 0.941406 C 1768.378906 245.089844 1570.460938 443.011719 1326.308594 443.011719 C 1082.160156 443.011719 884.234375 245.089844 884.234375 0.941406 L 1768.378906 0.941406 "/>
<path fill-rule="evenodd" fill="rgb(30.979919%, 24.705505%, 34.910583%)" fill-opacity="1" d="M 1768.378906 443.011719 C 1768.378906 687.160156 1570.460938 885.078125 1326.308594 885.078125 C 1082.160156 885.078125 884.234375 687.160156 884.234375 443.011719 L 1768.378906 443.011719 "/>
<path fill-rule="evenodd" fill="rgb(100%, 71.679688%, 0%)" fill-opacity="1" d="M 884.234375 1769.230469 L 884.234375 2653.378906 C 395.933594 2653.378906 0.0859375 2257.53125 0.0859375 1769.230469 L 884.234375 1769.230469 "/>
<path fill-rule="evenodd" fill="rgb(30.979919%, 24.705505%, 34.910583%)" fill-opacity="1" d="M 884.234375 2653.378906 L 884.234375 3537.519531 C 395.933594 3537.519531 0.0859375 3141.679688 0.0859375 2653.378906 L 884.234375 2653.378906 "/>
<path fill-rule="evenodd" fill="rgb(96.875%, 61.131287%, 16.088867%)" fill-opacity="1" d="M 1768.378906 1769.230469 C 2012.53125 1769.230469 2210.449219 1967.148438 2210.449219 2211.300781 C 2210.449219 2455.449219 2012.53125 2653.378906 1768.378906 2653.378906 L 1768.378906 1769.230469 "/>
<path fill-rule="evenodd" fill="rgb(92.96875%, 27.43988%, 34.521484%)" fill-opacity="1" d="M 2651.929688 1769.230469 C 2407.78125 1769.230469 2209.851562 1967.148438 2209.851562 2211.300781 C 2209.851562 2455.449219 2407.78125 2653.378906 2651.929688 2653.378906 L 2651.929688 1769.230469 "/>
<path fill-rule="evenodd" fill="rgb(7.054138%, 69.334412%, 76.171875%)" fill-opacity="1" d="M 1768.378906 2653.378906 C 2012.53125 2653.378906 2210.449219 2851.300781 2210.449219 3095.449219 C 2210.449219 3339.601562 2012.53125 3537.519531 1768.378906 3537.519531 L 1768.378906 2653.378906 "/>
<path fill-rule="evenodd" fill="rgb(96.875%, 61.131287%, 16.088867%)" fill-opacity="1" d="M 2651.929688 2653.378906 C 2407.78125 2653.378906 2209.851562 2851.300781 2209.851562 3095.449219 C 2209.851562 3339.601562 2407.78125 3537.519531 2651.929688 3537.519531 L 2651.929688 2653.378906 "/>
<path fill-rule="evenodd" fill="rgb(92.96875%, 27.43988%, 34.521484%)" fill-opacity="1" d="M 3536.671875 1769.230469 L 3536.671875 885.078125 C 3048.371094 885.078125 2652.53125 1280.929688 2652.53125 1769.230469 L 3536.671875 1769.230469 "/>
<path fill-rule="evenodd" fill="rgb(94.53125%, 90.625%, 83.201599%)" fill-opacity="1" d="M 3536.671875 885.078125 L 3536.671875 0.941406 C 3048.371094 0.941406 2652.53125 396.78125 2652.53125 885.078125 L 3536.671875 885.078125 "/>
<path fill-rule="evenodd" fill="rgb(7.054138%, 69.334412%, 76.171875%)" fill-opacity="1" d="M 884.234375 1769.230469 L 1768.378906 1769.230469 L 884.234375 2653.378906 Z M 884.234375 1769.230469 "/>
<path fill-rule="evenodd" fill="rgb(94.53125%, 90.625%, 83.201599%)" fill-opacity="1" d="M 884.234375 2653.378906 L 1768.378906 2653.378906 L 884.234375 3537.519531 Z M 884.234375 2653.378906 "/>
<path fill-rule="evenodd" fill="rgb(7.054138%, 69.334412%, 76.171875%)" fill-opacity="1" d="M 3536.070312 1769.230469 L 3094 2211.300781 L 2651.929688 1769.230469 Z M 3536.070312 1769.230469 "/>
<path fill-rule="evenodd" fill="rgb(92.96875%, 27.43988%, 34.521484%)" fill-opacity="1" d="M 3536.070312 2211.300781 L 3094 2653.378906 L 2651.929688 2211.300781 Z M 3536.070312 2211.300781 "/>
<path fill-rule="evenodd" fill="rgb(7.054138%, 69.334412%, 76.171875%)" fill-opacity="1" d="M 3536.070312 3537.519531 L 3094 3095.449219 L 2651.929688 3537.519531 Z M 3536.070312 3537.519531 "/>
<path fill-rule="evenodd" fill="rgb(30.979919%, 24.705505%, 34.910583%)" fill-opacity="1" d="M 3536.070312 3095.449219 L 3094 2653.378906 L 2651.929688 3095.449219 Z M 3536.070312 3095.449219 "/>
<path fill-rule="evenodd" fill="rgb(30.979919%, 24.705505%, 34.910583%)" fill-opacity="1" d="M 884.234375 3537.519531 L 884.234375 4421.671875 C 1372.53125 4421.671875 1768.378906 4025.820312 1768.378906 3537.519531 L 884.234375 3537.519531 "/>
<path fill-rule="evenodd" fill="rgb(7.054138%, 69.334412%, 76.171875%)" fill-opacity="1" d="M 884.234375 4421.671875 L 884.234375 5305.816406 C 1372.53125 5305.816406 1768.378906 4909.972656 1768.378906 4421.671875 L 884.234375 4421.671875 "/>
<path fill-rule="evenodd" fill="rgb(94.53125%, 90.625%, 83.201599%)" fill-opacity="1" d="M 0.6875 3537.519531 C 244.839844 3537.519531 442.765625 3735.449219 442.765625 3979.601562 C 442.765625 4223.75 244.839844 4421.671875 0.6875 4421.671875 L 0.6875 3537.519531 "/>
<path fill-rule="evenodd" fill="rgb(94.53125%, 90.625%, 83.201599%)" fill-opacity="1" d="M 884.234375 3537.519531 C 640.085938 3537.519531 442.164062 3735.449219 442.164062 3979.601562 C 442.164062 4223.75 640.085938 4421.671875 884.234375 4421.671875 L 884.234375 3537.519531 "/>
<path fill-rule="evenodd" fill="rgb(94.53125%, 90.625%, 83.201599%)" fill-opacity="1" d="M 0.6875 4421.671875 C 244.839844 4421.671875 442.765625 4619.59375 442.765625 4863.742188 C 442.765625 5107.894531 244.839844 5305.816406 0.6875 5305.816406 L 0.6875 4421.671875 "/>
<path fill-rule="evenodd" fill="rgb(94.53125%, 90.625%, 83.201599%)" fill-opacity="1" d="M 884.234375 4421.671875 C 640.085938 4421.671875 442.164062 4619.59375 442.164062 4863.742188 C 442.164062 5107.894531 640.085938 5305.816406 884.234375 5305.816406 L 884.234375 4421.671875 "/>
<path fill-rule="evenodd" fill="rgb(97.264099%, 64.256287%, 1.179504%)" fill-opacity="1" d="M 1768.378906 3537.519531 L 2210.449219 3979.601562 L 1768.378906 4421.667969 Z M 1768.378906 3537.519531 "/>
<path fill-rule="evenodd" fill="rgb(97.264099%, 64.256287%, 1.179504%)" fill-opacity="1" d="M 2210.449219 3537.519531 L 2652.53125 3979.601562 L 2210.449219 4421.667969 Z M 2210.449219 3537.519531 "/>
<path fill-rule="evenodd" fill="rgb(94.53125%, 90.625%, 83.201599%)" fill-opacity="1" d="M 1768.378906 4421.671875 L 2210.449219 4863.742188 L 1768.378906 5305.816406 Z M 1768.378906 4421.671875 "/>
<path fill-rule="evenodd" fill="rgb(94.53125%, 90.625%, 83.201599%)" fill-opacity="1" d="M 2210.449219 4421.671875 L 2652.53125 4863.742188 L 2210.449219 5305.816406 Z M 2210.449219 4421.671875 "/>
<path fill-rule="evenodd" fill="rgb(7.054138%, 69.334412%, 76.171875%)" fill-opacity="1" d="M 3536.070312 3537.519531 L 2651.929688 3537.519531 L 3536.070312 4421.667969 Z M 3536.070312 3537.519531 "/>
<path fill-rule="evenodd" fill="rgb(7.054138%, 69.334412%, 76.171875%)" fill-opacity="1" d="M 3536.070312 4421.671875 L 2651.929688 4421.667969 L 3536.070312 5305.816406 Z M 3536.070312 4421.671875 "/>
</svg>
