<svg xmlns="http://www.w3.org/2000/svg" viewBox="60 10 170 90" width="170" height="90">
  <g>
    <rect style="fill:#9bbb59;fill-opacity:1;fill-rule:evenodd;stroke:none" width="19" height="19.7" x="69.7" y="73.2" transform="matrix(0.99167356,-0.12877717,0.11946162,0.99283882,0,0)" ry="3.5" />
    <rect style="fill:#6581bd;fill-opacity:0.99;fill-rule:evenodd;stroke:none" width="19" height="19.7" x="113.7" y="35.3" transform="matrix(0.97841679,0.20664122,-0.21581754,0.97643371,0,0)" ry="3.5" />
    <rect style="fill:#6581bd;fill-opacity:0.99;fill-rule:evenodd;stroke:none" width="19" height="19.7" x="106.9" y="78.8" transform="matrix(0.99167356,-0.12877717,0.11946162,0.99283882,0,0)" ry="3.5" />
    <rect style="fill:#a340f3;fill-opacity:1;fill-rule:evenodd;stroke:none" width="19" height="19.7" x="149.2" y="40.9" transform="matrix(0.98914028,0.1469745,-0.15625412,0.98771689,0,0)" ry="3.5" />
    <rect style="fill:#fea200;fill-opacity:1;fill-rule:evenodd;stroke:none" width="19" height="19.7" x="152.6" y="82.9" transform="matrix(0.99167356,-0.12877717,0.11946162,0.99283882,0,0)" ry="3.5" />
    <rect style="fill:#9bbb59;fill-opacity:1;fill-rule:evenodd;stroke:none" width="19" height="19.7" x="174.4" y="87.7" transform="matrix(0.99167356,-0.12877717,0.11946162,0.99283882,0,0)" ry="3.5" />
    <rect style="fill:#c25505;fill-opacity:1;fill-rule:evenodd;stroke:none" width="19" height="19.7" x="216.7" y="18" transform="matrix(0.98182942,0.18976562,-0.19897471,0.98000462,0,0)" ry="3.5" />
    <path style="fill:#888888;fill-opacity:1;stroke:none" d="m 83.983132,66.478763 7.957476,-0.870152 c 0.614718,-0.06724 1.088231,0.17276 1.420524,0.719912 0.36624,0.50488 0.386669,1.047266 0.0613,1.627159 l -5.190426,8.562321 4.843639,-0.529654 c 0.576585,-0.06304 1.045901,0.138499 1.40792,0.60465 0.362007,0.466151 0.418741,0.984975 0.170205,1.556473 -0.252728,0.533381 -0.667384,0.831587 -1.243978,0.894634 l -7.957467,0.870153 c -0.615328,0.06731 -1.108195,-0.170561 -1.478604,-0.713556 -0.332293,-0.547169 -0.333365,-1.091653 -0.0031,-1.633505 l 5.190526,-8.561449 -4.843646,0.529664 c -0.576594,0.06304 -1.045909,-0.138483 -1.407923,-0.604657 -0.366835,-0.504785 -0.423743,-1.023884 -0.170735,-1.557303 0.253008,-0.533388 0.667817,-0.831619 1.244418,-0.89469 z" />
    <path style="fill:#888888;fill-opacity:1;stroke:none" d="m 112.32208,63.54352 c -1.09218,-0.39102 -2.186,-0.433525 -3.28143,-0.127527 -2.02932,0.505668 -3.50671,2.050961 -4.43216,4.635883 -0.91,2.426253 -0.88163,4.469579 0.0851,6.129992 0.72199,1.080155 1.72019,1.848367 2.9946,2.30464 1.12831,0.40394 2.25204,0.477543 3.37121,0.220762 2.02931,-0.505652 3.51974,-2.087322 4.47125,-4.74503 0.88627,-2.475482 0.73183,-4.625364 -0.46331,-6.449662 -0.66523,-0.895608 -1.58033,-1.551964 -2.7453,-1.969054 z m -4.95183,5.743423 0.0782,-0.218321 c 0.56047,-1.565508 1.33218,-2.459681 2.31512,-2.682512 0.54161,-0.13512 1.04908,-0.117956 1.52241,0.05148 1.78383,0.638663 2.25211,2.141276 1.40482,4.507882 -0.87337,2.439373 -2.20195,3.339733 -3.98577,2.701088 -1.71107,-0.612588 -2.15599,-2.065798 -1.33475,-4.359638 z" />
    <path style="fill:#888888;fill-opacity:1;stroke:none" d="m 126.81939,66.342259 c -1.16009,1.5e-5 -2.20421,0.32869 -3.13239,0.986004 -1.74012,1.160099 -2.61019,3.112939 -2.61019,5.858534 -0.039,2.591004 0.67653,4.505193 2.1464,5.742569 1.04384,0.773591 2.24255,1.160374 3.59618,1.160374 1.19842,0 2.28121,-0.309491 3.24835,-0.928477 1.74011,-1.160076 2.61016,-3.151565 2.61017,-5.974466 -1e-5,-2.62935 -0.87006,-4.601369 -2.61017,-5.91606 -0.92819,-0.618969 -2.01097,-0.928463 -3.24835,-0.928478 z m -2.72613,7.076426 0,-0.231888 c 0,-1.662816 0.42515,-2.764774 1.27545,-3.305882 0.46436,-0.309773 0.94794,-0.464668 1.45068,-0.464676 1.8947,8e-6 2.84207,1.256852 2.84207,3.770558 0,2.591004 -0.94737,3.886506 -2.84207,3.886498 -1.81742,8e-6 -2.72613,-1.218195 -2.72613,-3.65461 z" />
    <path style="fill:#888888;fill-opacity:1;stroke:none" d="m 150.83351,67.084791 c 1.1779,0.220801 2.18513,0.724483 3.02168,1.511032 0.42999,0.434804 0.59155,0.937269 0.4847,1.507375 -0.18991,0.593568 -0.57602,0.973561 -1.15832,1.13997 -0.57456,0.128235 -1.05806,-0.02121 -1.45045,-0.448379 -0.37533,-0.306876 -0.86691,-0.517288 -1.4747,-0.63122 -0.49414,-0.09261 -0.99437,-0.0486 -1.50069,0.132067 -0.94263,0.41347 -1.56356,1.418531 -1.86282,3.01519 l -0.0109,0.05658 c -0.32059,1.71034 -0.1317,2.906504 0.56649,3.588497 0.36827,0.344582 0.83745,0.570312 1.40757,0.677163 0.6078,0.113934 1.14573,0.07697 1.61381,-0.110826 0.52773,-0.294905 1.03273,-0.25939 1.51495,0.106545 0.48222,0.365961 0.70429,0.860245 0.66625,1.482878 -0.11397,0.607806 -0.44291,0.998506 -0.98695,1.172086 -1.07166,0.467916 -2.19661,0.591454 -3.37482,0.370607 -1.17821,-0.220837 -2.14731,-0.717365 -2.90727,-1.489577 -1.54207,-1.429696 -2.04596,-3.569835 -1.51166,-6.420395 0.45604,-2.432969 1.53924,-4.118632 3.24961,-5.05698 1.10733,-0.658128 2.34507,-0.858981 3.71323,-0.602542 z" />
    <path style="fill:#888888;fill-opacity:1;stroke:none" d="m 171.32673,64.545805 c -1.15712,0.08292 -2.1751,0.485354 -3.05393,1.20732 -1.65278,1.281479 -2.38107,3.291502 -2.18488,6.030077 0.14635,2.587156 0.99673,4.445327 2.55127,5.574504 1.09644,0.69702 2.31975,0.997159 3.66992,0.900429 1.19536,-0.08564 2.25325,-0.471711 3.17368,-1.158222 1.65277,-1.281463 2.37829,-3.330029 2.17659,-6.14572 -0.18791,-2.622625 -1.19667,-4.527433 -3.02627,-5.71441 -0.97006,-0.551062 -2.07218,-0.782396 -3.30638,-0.693978 z m -2.21349,7.25314 -0.0166,-0.231303 c -0.11889,-1.658559 0.22649,-2.788078 1.03594,-3.388566 0.44106,-0.342164 0.91232,-0.531221 1.41378,-0.567154 1.88986,-0.13538 2.92461,1.050554 3.10426,3.557825 0.18514,2.584379 -0.66722,3.944268 -2.55708,4.079662 -1.81278,0.129858 -2.80623,-1.020278 -2.98032,-3.450464 z" />
    <path style="fill:#888888;fill-opacity:1;stroke:none" d="m 193.85647,66.348411 c 2.10463,-0.309027 3.83027,0.395402 5.17692,2.11328 0.39019,0.528978 0.47162,1.0836 0.24433,1.663859 -0.27142,0.547997 -0.71612,0.847977 -1.33411,0.899942 -0.62306,0.01336 -1.09145,-0.250043 -1.40514,-0.790237 -0.34668,-0.496588 -0.73893,-0.771484 -1.17674,-0.82469 -0.31715,-0.03156 -0.6672,-0.01925 -1.05019,0.03696 -0.9948,0.146087 -1.6248,0.512337 -1.88997,1.098771 -0.0273,0.08214 -0.0708,0.186328 -0.13033,0.312558 -0.12979,0.448476 -0.17991,0.905221 -0.15038,1.370246 l 0.96917,6.600265 c 0.0842,0.573893 -0.0808,1.047521 -0.4954,1.420911 -0.49044,0.384525 -1.00682,0.460348 -1.54914,0.227471 -0.54234,-0.232878 -0.85563,-0.636256 -0.93989,-1.21015 l -0.96918,-6.600265 c -0.19616,-2.668105 0.72085,-4.542155 2.75105,-5.622158 0.57249,-0.3578 1.22215,-0.590064 1.949,-0.69681 z" />
    <path style="fill:#888888;fill-opacity:1;stroke:none" d="m 220.46101,75.814533 1.39257,-5.750737 c 0.31473,-1.793716 0.0311,-3.334348 -0.8506,-4.621905 -0.23678,-0.335997 -0.50158,-0.639017 -0.79438,-0.909076 -0.62305,-0.548531 -1.29157,-0.909244 -2.00556,-1.082155 -1.69125,-0.40953 -3.23595,-0.02776 -4.63411,1.145445 -1.58406,1.446898 -2.41345,3.474217 -2.48819,6.081922 -0.0439,1.660779 0.45875,3.035922 1.50813,4.125439 0.25496,0.260872 0.53343,0.507408 0.83541,0.739601 1.28158,0.787538 2.5775,1.021823 3.88783,0.702854 0.0804,0.655741 0.4541,1.084407 1.1211,1.285995 0.4423,0.146576 0.85469,0.08705 1.23715,-0.178538 0.34502,-0.274043 0.60857,-0.786998 0.79065,-1.538845 z m -3.10789,-9.346759 c 0.75127,0.181941 1.25179,0.661043 1.50157,1.437318 0.14489,0.55237 -0.0109,1.688507 -0.46749,3.408431 -0.41278,1.213252 -1.03149,1.879099 -1.85612,1.99755 -0.28142,0.01132 -0.643,-0.05613 -1.08474,-0.202565 -0.72452,-0.295034 -1.15057,-0.835944 -1.27817,-1.622721 -0.0387,-0.168439 -0.0398,-0.328087 -0.004,-0.478913 -0.0185,-1.237534 0.25908,-2.383672 0.83263,-3.438394 0.33232,-0.715463 0.90169,-1.094858 1.70813,-1.138192 0.24357,-0.02053 0.45942,-0.008 0.64752,0.03749 z" />
  </g>
</svg>