<svg version="1.1" id="Layer_1" xmlns:serif="http://www.serif.com/" xmlns="http://www.w3.org/2000/svg" xmlns:xlink="http://www.w3.org/1999/xlink" x="0px" y="0px" viewBox="-283.1 -26.5 676.1 136.5" style="enable-background:new -283.1 -26.5 676.1 136.5;" xml:space="preserve">
 <style type="text/css">
  .st0{fill:#170F4F;}
	.st1{fill:#00BAC7;}
 </style>
 <g>
  <path class="st0" d="M-211.6,61.8c0.3-6.1-1.9-12-6-16.4c-4.1-4.5-9.8-7.1-15.9-7.4c-0.4,0-0.9,0-1.3,0c-4.7-0.2-9.4,1.1-13.5,3.6
		c-4,2.5-7.3,6.1-9.2,10.5c-2,4.3-2.6,9.1-1.9,13.8c0.8,4.7,2.9,9,6.1,12.5s7.4,5.9,12.1,7s9.5,0.8,13.9-0.9
		c4.5-1.7,8.3-4.6,11.1-8.5c2.8-3.9,4.3-8.4,4.5-13.2C-211.6,62.5-211.6,62.1-211.6,61.8z M-184.9,62c0,27.7-19.7,48-45.5,48
		c-5.2,0.1-10.4-1-15.1-3.1c-4.7-2.2-8.9-5.4-12.2-9.4v10.1h-25.4V-26.5h26.2v51.8c3.4-3.7,7.5-6.6,12-8.5c4.6-2,9.5-2.9,14.5-2.8
		C-204.6,13.9-184.9,34.5-184.9,62C-184.9,62-184.9,62-184.9,62z M-103.1,61.7c-0.2-6.1-2.8-11.8-7.3-16c-4.4-4.2-10.3-6.4-16.4-6.2
		c-6.1,0.2-11.8,2.7-16.1,7.1c-4.2,4.4-6.5,10.3-6.4,16.3c0.1,6.1,2.6,11.9,6.9,16.1c4.3,4.3,10.2,6.6,16.3,6.6
		c6.1,0,11.9-2.4,16.2-6.7c4.3-4.3,6.8-10.1,6.8-16.2C-103.1,62.4-103.1,62.1-103.1,61.7z M-175.6,61.9c-0.2-9.7,2.4-19.3,7.6-27.6
		c5.2-8.2,12.8-14.7,21.7-18.7c8.9-3.9,18.8-5.2,28.4-3.5c9.6,1.7,18.5,6.2,25.6,12.9c7.1,6.7,12,15.4,14.1,24.9
		c2.1,9.5,1.4,19.4-2.1,28.5S-90,95.4-97.9,101c-8,5.6-17.4,8.7-27.2,9c-0.4,0-0.9,0-1.3,0c-12.5,0.5-24.7-3.9-33.9-12.4
		c-9.2-8.5-14.7-20.2-15.2-32.7C-175.6,63.9-175.6,62.9-175.6,61.9z M-64.7-26.5h26.2v134.1h-26.2V-26.5z M5.7,48.5v22.2
		c0,10.5,4,15.5,12.2,15.5c5.3-0.2,10.5-1.8,15-4.5l7.3,20.8c-8.5,5-18.2,7.5-28,7.5c-21.3,0-32.7-12.3-32.7-36.9l-0.2-24.7
		C-20.7,48.5,5.7,48.5,5.7,48.5z M-20.7-26.5H5.7v47.3h-26.3V-26.5z M116,102.5c-6.6,5.1-14.7,7.7-23,7.5
		c-17.3,0-26.1-11.3-26.1-30.3V29.4H51.5v-8.6h15.5V-9.8h9.6v30.7h35.6v8.6H76.6V80c0,14.1,5.7,21,17.2,21c6.5,0.1,12.9-2.1,18.1-6
		L116,102.5z M131.1,68.5h72.9c0.3-3.9,0.5-6.5,0.5-7.6c0.3-5.6-0.6-11.1-2.6-16.3c-2-5.2-5-10-8.9-13.9c-3.8-3.8-8.3-6.7-13.2-8.7
		c-5-1.9-10.3-2.9-15.6-2.7c-5.8-0.2-11.6,0.8-17,3c-5.4,2.2-10.2,5.6-14.2,9.8c-8,8.8-12.3,20.5-11.8,32.4
		c0,22.7,13.1,45.5,45,45.5c13.1,0,25.9-4.2,36.4-12l-4.5-7.4c-9.2,6.7-20.3,10.4-31.7,10.4C145,100.9,132.6,87.8,131.1,68.5z
		 M194.4,59.6h-63.3c1.9-18.9,14.9-31.4,33-31.4C181.8,28.2,194.2,40.4,194.4,59.6z M231.3,97.4c-8.1-9-12.5-20.6-12.5-32.7
		c0-12.1,4.5-23.7,12.6-32.6c4.3-4.2,9.4-7.6,14.9-9.8c5.6-2.2,11.6-3.2,17.6-3c7.9-0.3,15.7,1.7,22.6,5.6c6.8,4,12.4,9.8,16.1,16.7
		l-7.9,4.5c-3-5.5-7.5-10.1-12.9-13.3c-5.4-3.2-11.6-4.8-17.9-4.7c-4.7-0.2-9.4,0.7-13.8,2.5c-4.4,1.8-8.3,4.5-11.6,7.9
		c-6.4,7.2-10,16.5-10,26.1c-0.1,9.6,3.4,18.9,9.7,26.2c3.2,3.4,7,6,11.3,7.7c4.3,1.8,8.9,2.6,13.5,2.4c6.3,0,12.5-1.7,18-4.8
		c5.5-3.2,10-7.7,13.2-13.2l7.9,4.9c-3.6,6.8-9.1,12.4-15.9,16c-7.1,4-15.2,6.1-23.3,6c-5.9,0.2-11.7-0.8-17.2-3
		S235.4,101.5,231.3,97.4L231.3,97.4z M319.2-14.7v122.3l9.7,0V58.8c-0.3-4.3,0.3-8.6,1.8-12.6c1.5-4,3.8-7.7,6.8-10.7
		c5.4-5.1,12.5-7.9,19.9-7.8c16,0,25.8,11,25.8,29.1v50.7h9.7V55.3c0.3-4.9-0.4-9.9-2.1-14.6c-1.7-4.7-4.4-8.9-7.8-12.5
		c-3.2-3.2-7-5.6-11.3-7.3c-4.2-1.6-8.7-2.4-13.2-2.3c-6.1-0.4-12.2,1-17.5,3.9s-9.7,7.5-12.5,12.9v-50.2L319.2-14.7L319.2-14.7z">
  </path>
  <rect x="5.7" y="20.8" class="st1" width="27.6" height="27.6">
  </rect>
 </g>
</svg>