<svg xmlns="http://www.w3.org/2000/svg" width="174" height="42" id="Layer_2" data-name="Layer 2" viewBox="0 0 174 25.98">
  <defs>
    <style>
      .cls-1 {
        fill: #002856;
      }
    </style>
  </defs>
  <g id="Layer_1-2" data-name="Layer 1">
    <g>
      <g>
        <path class="cls-1" d="M155.77,7.38l-4.17,11.31h1.5l1.11-3.12h3.49l1.07,3.12h2.54l-4.04-11.31h-1.5ZM155.99,10.68l1.29,3.74h-2.65l1.36-3.74Z"></path>
        <polygon class="cls-1" points="38.35 7.38 35.48 12.29 32.64 7.38 29.98 7.38 29.98 8.59 29.99 18.7 31.35 18.7 31.35 17.49 31.35 9.91 34.83 15.96 38.31 9.91 38.31 18.7 40.74 18.7 40.74 17.49 40.74 7.38 38.35 7.38"></polygon>
        <polygon class="cls-1" points="46.3 7.38 46.3 8.59 46.3 18.7 53.28 18.7 53.28 17.53 48.73 17.53 48.73 13.27 50.79 13.27 52.03 13.27 52.03 12.1 48.73 12.1 48.73 8.56 51.7 8.56 53.28 8.56 53.28 7.38 46.3 7.38"></polygon>
        <polygon class="cls-1" points="56.4 7.38 56.4 8.56 57.98 8.56 59.6 8.56 59.6 18.7 62.04 18.7 62.04 17.49 62.04 8.56 65.26 8.56 65.26 7.38 56.4 7.38"></polygon>
        <path class="cls-1" d="M72.75,8.55h-.85v3.86h.85c1.05,0,1.82-.96,1.82-2.02,0-.99-.8-1.84-1.82-1.84M69.47,18.7V7.38h3.28c2.12,0,4.51.94,4.51,3.01,0,1.52-1.29,2.46-2.2,2.76l3.13,5.54h-2.85l-2.61-5.12h-.83v5.12h-2.43Z"></path>
        <path class="cls-1" d="M83.9,13.04c0,2.13.38,4.81,2.49,4.81s2.49-2.68,2.49-4.81-.38-4.81-2.49-4.81-2.49,2.68-2.49,4.81M86.4,19.02c-3.2,0-5.33-2.89-5.33-5.98s2.13-5.98,5.33-5.98,5.34,2.89,5.34,5.98-2.14,5.98-5.34,5.98"></path>
        <path class="cls-1" d="M98.63,12.89h1.27c1.17,0,2.08-1.01,2.08-2.17s-.91-2.17-2.08-2.17h-1.27v4.33ZM98.63,18.7h-2.43V7.38h3.7c2.27,0,4.76,1.09,4.76,3.34s-2.49,3.34-4.76,3.34h-1.27v4.64Z"></path>
        <path class="cls-1" d="M110.64,13.04c0,2.13.38,4.81,2.49,4.81s2.49-2.68,2.49-4.81-.38-4.81-2.49-4.81-2.49,2.68-2.49,4.81M113.13,19.02c-3.2,0-5.34-2.89-5.34-5.98s2.14-5.98,5.34-5.98,5.34,2.89,5.34,5.98-2.13,5.98-5.34,5.98"></path>
        <polygon class="cls-1" points="122.93 7.38 122.93 8.59 122.93 18.7 129.73 18.7 129.73 17.53 128.15 17.53 125.36 17.53 125.36 7.38 122.93 7.38"></polygon>
        <polygon class="cls-1" points="133.95 7.38 133.95 8.59 133.95 18.7 136.41 18.7 136.41 17.49 136.4 7.38 133.95 7.38"></polygon>
        <polygon class="cls-1" points="140.79 7.38 140.79 8.56 142.37 8.56 143.99 8.56 143.99 18.7 146.43 18.7 146.43 17.49 146.43 8.56 149.65 8.56 149.65 7.38 140.79 7.38"></polygon>
        <polygon class="cls-1" points="172.64 7.38 172.64 8.59 172.64 13.15 167.79 7.38 165.79 7.38 165.79 8.59 165.79 18.7 167.16 18.7 167.16 17.49 167.16 10.44 174 19.04 174 7.38 172.64 7.38"></polygon>
      </g>
      <g>
        <path class="cls-1" d="M11.91,20.19c0,.49-.08.98-.25,1.44-.15.39-.37.81-.73,1.14-.89.84-1.81,1.45-5.67,2.19-3.87.74-5.26,1.01-5.26,1.01l2.17-4.77s1.77-.1,3.13-.59c1.35-.49,2.53-.9,3.61-2.21,1.08-1.31,1.18-4.44,1.37-6.5l.11-1.64-3.27,5.86-2.21-3.81L11.91,0v20.19Z"></path>
        <path class="cls-1" d="M12.67,20.19c0,.49.07.98.25,1.44.15.39.37.81.73,1.14.89.84,1.81,1.45,5.67,2.19,3.87.74,5.26,1.01,5.26,1.01l-2.17-4.77s-1.77-.1-3.13-.59c-1.35-.49-2.53-.9-3.61-2.21-1.08-1.31-1.18-4.44-1.37-6.5l-.11-1.64,3.27,5.86,2.21-3.81L12.67,0v20.19Z"></path>
      </g>
    </g>
  </g>
</svg>
