<?xml version="1.0" encoding="UTF-8"?>
<svg xmlns="http://www.w3.org/2000/svg" xmlns:xlink="http://www.w3.org/1999/xlink" width="5601" height="3201" viewBox="0 0 5601 3201">
<path fill-rule="evenodd" fill="rgb(23.535156%, 25.097656%, 35.693359%)" fill-opacity="1" d="M 0.171875 0.550781 L 800.171875 0.550781 L 800.171875 800.550781 L 0.171875 800.550781 L 0.171875 0.550781 "/>
<path fill-rule="evenodd" fill="rgb(94.921875%, 80.076599%, 55.664062%)" fill-opacity="1" d="M 800.171875 0.550781 L 1600.171875 0.550781 L 1600.171875 800.550781 L 800.171875 800.550781 L 800.171875 0.550781 "/>
<path fill-rule="evenodd" fill="rgb(50.976562%, 69.726562%, 60.351562%)" fill-opacity="1" d="M 1600.171875 0.550781 L 2400.171875 0.550781 L 2400.171875 800.550781 L 1600.171875 800.550781 L 1600.171875 0.550781 "/>
<path fill-rule="evenodd" fill="rgb(87.5%, 47.851562%, 36.863708%)" fill-opacity="1" d="M 2400.171875 0.550781 L 3200.171875 0.550781 L 3200.171875 800.550781 L 2400.171875 800.550781 L 2400.171875 0.550781 "/>
<path fill-rule="evenodd" fill="rgb(95.701599%, 94.53125%, 87.109375%)" fill-opacity="1" d="M 3200.171875 0.550781 L 4000.171875 0.550781 L 4000.171875 800.550781 L 3200.171875 800.550781 L 3200.171875 0.550781 "/>
<path fill-rule="evenodd" fill="rgb(94.921875%, 80.076599%, 55.664062%)" fill-opacity="1" d="M 4000.171875 0.550781 L 4800.171875 0.550781 L 4800.171875 800.550781 L 4000.171875 800.550781 L 4000.171875 0.550781 "/>
<path fill-rule="evenodd" fill="rgb(87.5%, 47.851562%, 36.863708%)" fill-opacity="1" d="M 0.171875 800.550781 L 800.171875 800.550781 L 800.171875 1600.550781 L 0.171875 1600.550781 L 0.171875 800.550781 "/>
<path fill-rule="evenodd" fill="rgb(23.535156%, 25.097656%, 35.693359%)" fill-opacity="1" d="M 0.171875 1600.550781 L 800.171875 1600.550781 L 800.171875 2400.550781 L 0.171875 2400.550781 L 0.171875 1600.550781 "/>
<path fill-rule="evenodd" fill="rgb(50.976562%, 69.726562%, 60.351562%)" fill-opacity="1" d="M 0.171875 2400.550781 L 800.171875 2400.550781 L 800.171875 3200.550781 L 0.171875 3200.550781 L 0.171875 2400.550781 "/>
<path fill-rule="evenodd" fill="rgb(50.976562%, 69.726562%, 60.351562%)" fill-opacity="1" d="M 800.171875 800.550781 L 1600.171875 800.550781 L 1600.171875 1600.550781 L 800.171875 1600.550781 L 800.171875 800.550781 "/>
<path fill-rule="evenodd" fill="rgb(94.921875%, 80.076599%, 55.664062%)" fill-opacity="1" d="M 800.171875 1600.550781 L 1600.171875 1600.550781 L 1600.171875 2400.550781 L 800.171875 2400.550781 L 800.171875 1600.550781 "/>
<path fill-rule="evenodd" fill="rgb(95.701599%, 94.53125%, 87.109375%)" fill-opacity="1" d="M 800.171875 2400.550781 L 1600.171875 2400.550781 L 1600.171875 3200.550781 L 800.171875 3200.550781 L 800.171875 2400.550781 "/>
<path fill-rule="evenodd" fill="rgb(95.701599%, 94.53125%, 87.109375%)" fill-opacity="1" d="M 1600.171875 800.550781 L 2400.171875 800.550781 L 2400.171875 1600.550781 L 1600.171875 1600.550781 L 1600.171875 800.550781 "/>
<path fill-rule="evenodd" fill="rgb(87.5%, 47.851562%, 36.863708%)" fill-opacity="1" d="M 1600.171875 1600.550781 L 2400.171875 1600.550781 L 2400.171875 2400.550781 L 1600.171875 2400.550781 L 1600.171875 1600.550781 "/>
<path fill-rule="evenodd" fill="rgb(94.921875%, 80.076599%, 55.664062%)" fill-opacity="1" d="M 1600.171875 2400.550781 L 2400.171875 2400.550781 L 2400.171875 3200.550781 L 1600.171875 3200.550781 L 1600.171875 2400.550781 "/>
<path fill-rule="evenodd" fill="rgb(94.921875%, 80.076599%, 55.664062%)" fill-opacity="1" d="M 2400.171875 800.550781 L 3200.171875 800.550781 L 3200.171875 1600.550781 L 2400.171875 1600.550781 L 2400.171875 800.550781 "/>
<path fill-rule="evenodd" fill="rgb(23.535156%, 25.097656%, 35.693359%)" fill-opacity="1" d="M 2400.171875 1600.550781 L 3200.171875 1600.550781 L 3200.171875 2400.550781 L 2400.171875 2400.550781 L 2400.171875 1600.550781 "/>
<path fill-rule="evenodd" fill="rgb(50.976562%, 69.726562%, 60.351562%)" fill-opacity="1" d="M 2400.171875 2400.550781 L 3200.171875 2400.550781 L 3200.171875 3200.550781 L 2400.171875 3200.550781 L 2400.171875 2400.550781 "/>
<path fill-rule="evenodd" fill="rgb(23.535156%, 25.097656%, 35.693359%)" fill-opacity="1" d="M 3200.171875 800.550781 L 4000.171875 800.550781 L 4000.171875 1600.550781 L 3200.171875 1600.550781 L 3200.171875 800.550781 "/>
<path fill-rule="evenodd" fill="rgb(50.976562%, 69.726562%, 60.351562%)" fill-opacity="1" d="M 3200.171875 1600.550781 L 4000.171875 1600.550781 L 4000.171875 2400.550781 L 3200.171875 2400.550781 L 3200.171875 1600.550781 "/>
<path fill-rule="evenodd" fill="rgb(87.5%, 47.851562%, 36.863708%)" fill-opacity="1" d="M 3200.171875 2400.550781 L 4000.171875 2400.550781 L 4000.171875 3200.550781 L 3200.171875 3200.550781 L 3200.171875 2400.550781 "/>
<path fill-rule="evenodd" fill="rgb(87.5%, 47.851562%, 36.863708%)" fill-opacity="1" d="M 4000.171875 800.550781 L 4800.171875 800.550781 L 4800.171875 1600.550781 L 4000.171875 1600.550781 L 4000.171875 800.550781 "/>
<path fill-rule="evenodd" fill="rgb(94.921875%, 80.076599%, 55.664062%)" fill-opacity="1" d="M 4000.171875 1600.550781 L 4800.171875 1600.550781 L 4800.171875 2400.550781 L 4000.171875 2400.550781 L 4000.171875 1600.550781 "/>
<path fill-rule="evenodd" fill="rgb(23.535156%, 25.097656%, 35.693359%)" fill-opacity="1" d="M 4000.171875 2400.550781 L 4800.171875 2400.550781 L 4800.171875 3200.550781 L 4000.171875 3200.550781 L 4000.171875 2400.550781 "/>
<path fill-rule="evenodd" fill="rgb(87.5%, 47.851562%, 36.863708%)" fill-opacity="1" d="M 4800.171875 0.550781 L 5600.171875 0.550781 L 5600.171875 800.550781 L 4800.171875 800.550781 L 4800.171875 0.550781 "/>
<path fill-rule="evenodd" fill="rgb(94.921875%, 80.076599%, 55.664062%)" fill-opacity="1" d="M 4800.171875 800.550781 L 5600.171875 800.550781 L 5600.171875 1600.550781 L 4800.171875 1600.550781 L 4800.171875 800.550781 "/>
<path fill-rule="evenodd" fill="rgb(95.701599%, 94.53125%, 87.109375%)" fill-opacity="1" d="M 4800.171875 1600.550781 L 5600.171875 1600.550781 L 5600.171875 2400.546875 L 4800.171875 2400.546875 L 4800.171875 1600.550781 "/>
<path fill-rule="evenodd" fill="rgb(50.976562%, 69.726562%, 60.351562%)" fill-opacity="1" d="M 4800.171875 2400.546875 L 5600.171875 2400.546875 L 5600.171875 3200.550781 L 4800.171875 3200.550781 L 4800.171875 2400.546875 "/>
<path fill-rule="evenodd" fill="rgb(50.976562%, 69.726562%, 60.351562%)" fill-opacity="1" d="M 800.171875 800.550781 L 800.171875 0.550781 C 358.34375 0.550781 0.171875 358.71875 0.171875 800.550781 L 800.171875 800.550781 "/>
<path fill-rule="evenodd" fill="rgb(87.5%, 47.851562%, 36.863708%)" fill-opacity="1" d="M 1600.171875 0.550781 L 1600.171875 800.550781 C 1158.339844 800.550781 800.171875 442.378906 800.171875 0.550781 L 1600.171875 0.550781 "/>
<path fill-rule="evenodd" fill="rgb(94.921875%, 80.076599%, 55.664062%)" fill-opacity="1" d="M 0.171875 1600.550781 L 0.171875 800.550781 C 442 800.550781 800.171875 1158.71875 800.171875 1600.550781 L 0.171875 1600.550781 "/>
<path fill-rule="evenodd" fill="rgb(23.535156%, 25.097656%, 35.693359%)" fill-opacity="1" d="M 800.171875 1600.550781 L 800.171875 800.550781 C 1242 800.550781 1600.171875 1158.71875 1600.171875 1600.550781 L 800.171875 1600.550781 "/>
<path fill-rule="evenodd" fill="rgb(94.921875%, 80.076599%, 55.664062%)" fill-opacity="1" d="M 1600.171875 800.550781 L 1600.171875 1600.550781 C 2042 1600.550781 2400.171875 1242.378906 2400.171875 800.550781 L 1600.171875 800.550781 "/>
<path fill-rule="evenodd" fill="rgb(87.5%, 47.851562%, 36.863708%)" fill-opacity="1" d="M 3200.171875 1600.550781 L 3200.171875 800.550781 C 2758.339844 800.550781 2400.171875 1158.71875 2400.171875 1600.550781 L 3200.171875 1600.550781 "/>
<path fill-rule="evenodd" fill="rgb(50.976562%, 69.726562%, 60.351562%)" fill-opacity="1" d="M 4000.171875 800.550781 L 4000.171875 1600.550781 C 3558.339844 1600.550781 3200.171875 1242.378906 3200.171875 800.550781 L 4000.171875 800.550781 "/>
<path fill-rule="evenodd" fill="rgb(50.976562%, 69.726562%, 60.351562%)" fill-opacity="1" d="M 4800.171875 1600.550781 L 4800.171875 800.550781 C 4358.339844 800.550781 4000.171875 1158.71875 4000.171875 1600.550781 L 4800.171875 1600.550781 "/>
<path fill-rule="evenodd" fill="rgb(95.701599%, 94.53125%, 87.109375%)" fill-opacity="1" d="M 5600.171875 800.550781 L 5600.171875 1600.550781 C 5158.339844 1600.550781 4800.171875 1242.378906 4800.171875 800.550781 L 5600.171875 800.550781 "/>
<path fill-rule="evenodd" fill="rgb(95.701599%, 94.53125%, 87.109375%)" fill-opacity="1" d="M 800.171875 1600.550781 L 800.171875 2400.550781 C 358.34375 2400.550781 0.171875 2042.378906 0.171875 1600.550781 L 800.171875 1600.550781 "/>
<path fill-rule="evenodd" fill="rgb(87.5%, 47.851562%, 36.863708%)" fill-opacity="1" d="M 0.171875 2400.550781 L 0.171875 3200.550781 C 442 3200.550781 800.171875 2842.378906 800.171875 2400.550781 L 0.171875 2400.550781 "/>
<path fill-rule="evenodd" fill="rgb(23.535156%, 25.097656%, 35.693359%)" fill-opacity="1" d="M 1600.171875 1600.550781 L 1600.171875 2400.550781 C 1158.339844 2400.550781 800.171875 2042.378906 800.171875 1600.550781 L 1600.171875 1600.550781 "/>
<path fill-rule="evenodd" fill="rgb(23.535156%, 25.097656%, 35.693359%)" fill-opacity="1" d="M 1600.171875 3200.550781 L 1600.171875 2400.550781 C 1158.339844 2400.550781 800.171875 2758.722656 800.171875 3200.550781 L 1600.171875 3200.550781 "/>
<path fill-rule="evenodd" fill="rgb(94.921875%, 80.076599%, 55.664062%)" fill-opacity="1" d="M 2400.171875 2400.550781 L 2400.171875 1600.550781 C 1958.339844 1600.550781 1600.171875 1958.71875 1600.171875 2400.550781 L 2400.171875 2400.550781 "/>
<path fill-rule="evenodd" fill="rgb(50.976562%, 69.726562%, 60.351562%)" fill-opacity="1" d="M 2400.171875 2400.550781 L 2400.171875 3200.550781 C 1958.339844 3200.550781 1600.171875 2842.378906 1600.171875 2400.550781 L 2400.171875 2400.550781 "/>
<path fill-rule="evenodd" fill="rgb(95.701599%, 94.53125%, 87.109375%)" fill-opacity="1" d="M 3200.171875 1600.550781 L 3200.171875 2400.550781 C 2758.339844 2400.550781 2400.171875 2042.378906 2400.171875 1600.550781 L 3200.171875 1600.550781 "/>
<path fill-rule="evenodd" fill="rgb(87.5%, 47.851562%, 36.863708%)" fill-opacity="1" d="M 2400.171875 2400.550781 L 2400.171875 3200.550781 C 2842 3200.550781 3200.171875 2842.378906 3200.171875 2400.550781 L 2400.171875 2400.550781 "/>
<path fill-rule="evenodd" fill="rgb(87.5%, 47.851562%, 36.863708%)" fill-opacity="1" d="M 4000.171875 2400.550781 L 4000.171875 1600.550781 C 3558.339844 1600.550781 3200.171875 1958.71875 3200.171875 2400.550781 L 4000.171875 2400.550781 "/>
<path fill-rule="evenodd" fill="rgb(95.701599%, 94.53125%, 87.109375%)" fill-opacity="1" d="M 4000.171875 3200.550781 L 4000.171875 2400.550781 C 3558.339844 2400.550781 3200.171875 2758.722656 3200.171875 3200.550781 L 4000.171875 3200.550781 "/>
<path fill-rule="evenodd" fill="rgb(23.535156%, 25.097656%, 35.693359%)" fill-opacity="1" d="M 4000.171875 2400.550781 L 4000.171875 1600.550781 C 4442 1600.550781 4800.171875 1958.71875 4800.171875 2400.550781 L 4000.171875 2400.550781 "/>
<path fill-rule="evenodd" fill="rgb(94.921875%, 80.076599%, 55.664062%)" fill-opacity="1" d="M 4800.171875 2400.550781 L 4800.171875 3200.550781 C 4358.339844 3200.550781 4000.171875 2842.378906 4000.171875 2400.550781 L 4800.171875 2400.550781 "/>
<path fill-rule="evenodd" fill="rgb(94.921875%, 80.076599%, 55.664062%)" fill-opacity="1" d="M 5600.171875 2400.550781 L 5600.171875 1600.550781 C 5158.339844 1600.550781 4800.171875 1958.71875 4800.171875 2400.550781 L 5600.171875 2400.550781 "/>
<path fill-rule="evenodd" fill="rgb(87.5%, 47.851562%, 36.863708%)" fill-opacity="1" d="M 4800.171875 3200.550781 L 4800.171875 2400.550781 C 5242 2400.550781 5600.171875 2758.722656 5600.171875 3200.550781 L 4800.171875 3200.550781 "/>
<path fill-rule="evenodd" fill="rgb(95.701599%, 94.53125%, 87.109375%)" fill-opacity="1" d="M 2400.171875 0.550781 L 2400.171875 800.550781 C 1958.339844 800.550781 1600.171875 442.378906 1600.171875 0.550781 L 2400.171875 0.550781 "/>
<path fill-rule="evenodd" fill="rgb(23.535156%, 25.097656%, 35.693359%)" fill-opacity="1" d="M 3200.171875 800.550781 L 3200.171875 0.550781 C 2758.339844 0.550781 2400.171875 358.71875 2400.171875 800.550781 L 3200.171875 800.550781 "/>
<path fill-rule="evenodd" fill="rgb(87.5%, 47.851562%, 36.863708%)" fill-opacity="1" d="M 4000.171875 0.550781 L 4000.171875 800.550781 C 3558.339844 800.550781 3200.171875 442.378906 3200.171875 0.550781 L 4000.171875 0.550781 "/>
<path fill-rule="evenodd" fill="rgb(50.976562%, 69.726562%, 60.351562%)" fill-opacity="1" d="M 4000.171875 0.550781 L 4000.171875 800.550781 C 4442 800.550781 4800.171875 442.378906 4800.171875 0.550781 L 4000.171875 0.550781 "/>
<path fill-rule="evenodd" fill="rgb(23.535156%, 25.097656%, 35.693359%)" fill-opacity="1" d="M 5600.171875 800.550781 L 5600.171875 0.550781 C 5158.339844 0.550781 4800.171875 358.71875 4800.171875 800.550781 L 5600.171875 800.550781 "/>
</svg>
